<?xml version='1.0' encoding='utf-8'?>
<svg xmlns="http://www.w3.org/2000/svg" enable-background="new 0 0 2000 2000" version="1.1" viewBox="0 0 2e3 2e3"> <style type="text/css">.st0{fill:#0C0908;} .st1{fill:#E8E8E8;} .st2{fill:#F7F5F2;} .st3{fill:#9B623A;} .st4{fill:#7C441D;} .st5{fill:#FDFDFD;} .st6{fill:#342F2C;} .st7{fill:#77411C;} .st8{fill:#9F653D;} .st9{fill:#D2504F;} .st10{fill:#E2E2E2;} .st11{fill:#F8F4F3;} .st12{fill:#BB4542;} .st13{fill:#E2D8D7;} .st14{fill:#F7F4EE;} .st15{fill:#AE3F41;} .st16{fill:#A86333;} .st17{fill:#784016;} .st18{fill:#7D4014;} .st19{fill:#291A13;} .st20{fill:#E2D4CC;} .st21{fill:#DFDDDD;} .st22{fill:#E2DDDB;} .st23{fill:#F5F5F3;} .st24{fill:#7B3F14;} .st25{fill:#20140F;} .st26{fill:#220B07;} .st27{fill:#F7F8F7;} .st28{fill:#F9FAF9;} .st29{fill:#DC504E;}</style> <path class="st0" d="m854.4 907.81c-47.52-57.11-55.09-119.42-33.81-187.5-8.48-4.1-11.08-12.69-13.23-21.21-3.77-15-6.06-30.22-3.68-45.77 2.64-17.29 11.79-29.79 27.13-38.24 3.56-1.96 6.93-5.52 8.77-9.15 31.01-61.32 81.4-97.73 147.01-114.23 38.53-9.69 77.26-10.43 115.81 0.51 38.38 10.89 69.5 32.58 92.43 65 34.18 48.31 54.84 102.36 64.88 160.54 0.82 4.75 0.91 9.63 1.38 14.77 9.06-0.64 16.82 1.43 22.19 9.33 0.71 1.04 2.93 1.24 4.51 1.48 8.15 1.23 13.2 5.83 15.76 13.62 0.72 2.17 2.11 4.47 3.86 5.89 7.09 5.76 10.04 12.68 7.81 21.8-0.55 2.25 0.15 4.85 0.47 7.26 0.28 2.08 1.64 4.36 1.13 6.15-3.61 12.71-8.61 24.86-17.03 35.24-1.19 1.46-3.81 1.67-5.62 2.72-2.38 1.38-5.08 2.61-6.83 4.62-5.24 6.02-11.08 9.5-19.43 7.45-1.95-0.48-4.59 0.08-6.39 1.1-8.29 4.68-15.38 4.21-22.96-1.41-1.96-1.45-4.72-2.3-7.2-2.51-7.37-0.62-12.54-4.19-16.41-10.35-1.68-2.67-4.1-4.89-6.24-7.26-1.41-1.56-3.93-2.86-4.22-4.56-2.15-12.9-13.42-24.25-6.72-38.64 0.18-0.38 0.47-0.84 0.39-1.18-2.59-11.3 1.9-19.64 10.58-26.51 0.93-0.73 0.8-3.55 0.34-5.16-3.52-12.32-11.13-21.93-20.24-30.46-2.87 2.65-5.44 5.03-8.08 7.46 18.05 65.12 9.94 125.13-37.06 178.73 3.76 0.18 6.54 0.82 9.12 0.36 25.12-4.49 50.24-9.05 75.31-13.82 19.95-3.79 39.9-7.13 60.33-6.01 38.89 2.13 69.32 23.8 81.37 58.06 12.03 34.21 2.04 70.52-27.01 96.26-22.3 19.76-49.14 31.62-76.45 42.5-19.19 7.64-38.36 15.31-57.62 22.75-10.18 3.93-15.13 11.59-16.86 21.86-3.91 23.31-0.28 45.86 7.24 67.91 18.61 54.55 52.45 96.69 102.67 125.38 4.76 2.72 9.64 5.27 14.24 8.24 34.69 22.42 46.17 61.31 28.78 100.36-17.27 38.78-48.23 62.69-87.35 76.73-46.37 16.64-87.29 5.3-124.83-24.55-27.26-21.68-48.5-48.66-69.72-75.78-14.7-18.79-29.15-37.78-44.35-56.16-15.27-18.48-21.2-19.04-36.71-0.82-18.45 21.67-35.39 44.64-52.72 67.25-20.11 26.24-41.96 50.6-68.61 70.62-51.4 38.62-105.88 33.35-153.94 2.37-25.56-16.48-45.33-38.57-54.88-68.23-12.42-38.57 1.55-74.81 37.04-94.56 24.76-13.79 47.61-29.81 66.11-51.41 28.61-33.4 48.41-71.09 53.51-115.34 1.15-9.95 0.31-20.2-0.29-30.27-0.68-11.39-6.77-19.09-17.52-23.3-21.58-8.47-43.14-17.02-64.6-25.8-22.51-9.21-44.26-19.94-63.58-34.95-32.53-25.28-44.84-63.41-32.48-100.14 11.99-35.64 45.11-58.56 85.86-59.21 25.74-0.41 50.77 4.99 75.82 9.96 16.75 3.32 33.43 6.96 50.2 10.14 3.73 0.68 7.72 0.07 12.62 0.07zm-130.3 160.61s-0.03-0.04-0.03-0.04c-0.06 0.37 0.02 0.72 0.22 1.03 0.98 0.71 1.86 1.68 2.95 2.11 17.57 6.95 35.33 13.46 52.7 20.88 10.3 4.4 20.01 10.21 29.98 15.39 8.64 10.56 9.26 23.37 9.37 36 0.27 32.07-8.32 61.99-23.11 90.3-20.57 39.38-48.7 71.7-87.39 94.28-7.64 4.46-15.11 9.21-22.57 13.98-24.47 15.64-33.02 44.34-26.09 71.69 6.49 25.56 22.2 45.06 42.5 61.21 13.74 11.52 29.51 19.04 46.53 24.47 29.53 9.42 57.96 7.47 85.45-6.95 18.23-9.57 33.53-23.03 48.5-36.88 1.63-1.51 2.57-3.76 3.82-5.68 0.71-0.59 1.41-1.18 2.12-1.76 1.13-0.86 2.49-1.52 3.35-2.6 19.27-24.2 38.21-48.68 57.83-72.59 11.43-13.93 23.45-27.46 36.12-40.25 8.61-8.7 18.37-8.48 26.69-1.28 4.29 3.71 8.66 7.5 12.2 11.9 14.78 18.35 29.37 36.86 43.82 55.46 20.42 26.27 40.57 52.74 66.82 73.75 15.9 12.73 32.53 23.86 52.58 29.18 18.84 5 37.39 4.68 55.86-1.47 8.1-2.71 16.51-4.73 24.24-8.25 28.49-12.98 51.03-32.64 65-61.07 7.55-15.37 11.65-31.48 7.87-48.86-4.63-21.28-17.42-35.84-36.18-46.06-9.95-5.42-19.87-11.1-29.08-17.67-29.48-21.03-52.64-47.75-69.68-79.72-19.2-36.04-31.58-73.47-23.57-115.1 2.14-11.1 8.17-19.24 18.26-24.15 7.37-3.59 14.98-6.69 22.48-10.01 9.02-3.44 17.96-7.09 27.07-10.28 24.47-8.58 48.05-19.03 69.89-33.08 31.88-20.5 49.79-48.23 42.34-87.5-4.07-21.47-16.15-38.07-35.33-49.13-5.48-2.57-10.76-5.76-16.47-7.59-27.77-8.91-55.15-3.23-82.48 2.79-0.81 0.11-1.62 0.21-2.44 0.32l-2.67 0.72c-1.66 0.23-3.33 0.39-4.98 0.7-19.85 3.67-39.7 7.36-59.54 11.05-3.58-0.05-7.18-0.34-10.74-0.1-6.82 0.46-12.28-2-15.11-8.09-2.87-6.16 2.43-9.72 6.06-13.26 14.5-14.15 23.89-31.6 30.77-50.17 8.48-22.89 11.36-46.85 9.29-71.31-1.42-16.86-4.47-33.3-11.71-48.74l-0.3-2.37c5.99-1.85 12.78-2.3 15.85-9.22 2.29-5.17 5.84-5.9 10.39-2.8 2.86 2.75 5.72 5.49 8.58 8.24 2.13 2.51 4.26 5.03 6.39 7.54 2.87 4.99 5.74 9.98 8.61 14.97 0.99 0.56 2.29 1.84 2.92 1.57 4.81-2.07 9.48-4.44 14.2-6.71 2.28-0.1 4.58-0.1 6.85-0.33 9.99-0.99 11.23-3.1 7.9-13.21-0.87-6.72-1.75-13.43-2.62-20.15-2.15-7.42-4.3-14.84-6.45-22.25-2.54-8.41-5.07-16.83-7.61-25.24-2.31-6.51-4.46-13.09-7.02-19.5-1.17-2.92-3.17-5.51-4.8-8.24-4.04-9.02-8.08-18.05-12.12-27.07-5.24-13.55-12.8-25.67-22.55-36.42-7.94-9.3-15.79-18.66-23.9-27.81-1.19-1.34-3.56-1.65-5.39-2.43l-11.31-10.17c-10.63-8.33-22.29-14.63-35.5-17.83-9.74-2.44-19.49-4.89-29.23-7.33-0.96-0.74-1.88-2.06-2.89-2.13-8.95-0.6-17.92-0.98-26.88-1.43-8.43 0.01-16.85 0.02-25.28 0.04-9.16 1.58-18.33 3.17-27.49 4.75-7.21 1.76-14.42 3.53-21.63 5.29-8.01 3.06-16.02 6.12-24.04 9.18-6.72 3.06-13.44 6.13-20.16 9.19-6.69 4.23-13.38 8.45-20.07 12.68l-15.78 12.9c-4.94 4.65-9.89 9.29-14.83 13.94-3.88 4.69-7.76 9.37-11.63 14.06-3.77 5.7-7.54 11.4-11.32 17.09-2.97 5.82-5.93 11.65-8.9 17.47-1.16 0.78-2.5 1.4-3.46 2.39-2.13 2.2-4.07 4.58-6.09 6.89-1.86 0.95-3.73 1.91-5.59 2.86-0.84 0.46-1.67 0.93-2.51 1.39-9.38 4.83-15 12.75-17.67 22.67-4.24 15.71-1.67 31.3 2.13 46.65 1.26 5.09 4.36 9.72 6.62 14.56 1.58 0.8 3.09 1.99 4.77 2.31 2.26 0.44 4.66 0.21 6.99 0.27-12.33 30.83-18.57 62.59-14.33 95.88 4.43 34.78 16.63 66.01 41.51 91.61 2.25 2.32 4.4 7.39 3.34 9.67-1.59 3.41-5.87 7.38-9.35 7.73-8.46 0.86-17.31 0.8-25.67-0.73-27.34-5-54.44-11.28-81.79-16.16-15.53-2.77-31.24-3.53-47.18-1.04-53.07 8.31-82.23 67-55.9 113.61 9.98 17.68 25.51 29.62 42.96 39.11 10.06 5.47 20.59 10.05 30.92 15.03 0.76 0.09 1.52 0.18 2.28 0.26 0.46 0.3 0.93 0.6 1.39 0.91 0.37 0.24 0.73 0.33 1.13 0.29zm512.35-233.13c3.59-1.37 5.14 1.03 7.01 3.45 4.22 5.45 9.73 5.7 14.61 0.93 1.32-1.29 2.55-2.67 3.76-3.93 11.1 6.3 13.83 5.44 19.36-5.35 0.68-1.33 2.6-2.67 4.08-2.85 12.46-1.46 14.54-4.03 12.46-16.08 11.11-8.18 11.65-10.51 4.99-21.55 6.14-10.97 5.16-14.84-4.82-21.27-1.34-0.86-2.11-3.2-2.39-4.97-0.72-4.51-1.23-9.18-6.65-10.27-2.96-0.6-6.15-0.11-9.42-0.11-0.54-0.84-1.25-1.89-1.89-2.98-5.81-10.01-7.08-10.4-18.11-6.19-1.1 0.42-2.71 0.22-3.83-0.27-10.57-4.67-13.99-3.4-19.28 7.36l-10.11 0.09c-5.16-0.07-5.43 4.22-5.95 7.48-0.56 3.52-1.62 5.36-5.32 6.45-7.22 2.13-9.42 7.94-6.74 14.96 0.6 1.58 0.72 4.03-0.1 5.36-5.08 8.25-4.93 10.17 1.88 17.52 0.99 1.07 2.02 2.85 1.84 4.14-1.57 11.69-0.55 13.34 10.58 15.86 2.82 12.72 4.98 14.59 14.04 12.22z"/> <path class="st1" d="m823.08 709.66c-2.26-4.84-5.36-9.47-6.62-14.56-3.8-15.34-6.37-30.94-2.13-46.65 2.68-9.92 8.29-17.84 17.67-22.67 0.84-0.46 1.67-0.93 2.51-1.39 1.86-0.95 3.73-1.91 5.59-2.86 21.65-9.82 44.31-16.34 67.77-19.81 69.87-10.34 138.88-5.62 206.95 12.91 21.43 5.83 42 14 61.23 25.22 10.36 6.04 17.7 14.82 15.68 27.31-2.3 14.28-5.89 28.44-10.09 42.29-3.02 9.94-6.6 10.88-16.31 7.19-10.24-3.89-20.36-8.13-30.7-11.75-62.05-21.7-125.74-30.06-191.3-23.52-37.84 3.78-74.13 13.76-109.83 26.37-3.28 1.16-6.94 1.3-10.42 1.92zm355.67-33.34c0.27-0.96 0.55-1.91 0.82-2.87-2.81-2.34-5.3-5.28-8.48-6.91-8.36-4.29-16.83-8.49-25.6-11.85-14.9-5.7-29.85-11.49-45.18-15.84-19.15-5.44-38.64-9.79-58.11-14.04-23.34-5.09-46.83-9.48-70.21-14.35-22.27-4.64-44.47-2.7-66.2 2.25-20.19 4.59-39.93 11.18-59.8 17.13-9.46 2.83-17.99 8.51-21.06 17.66-6.18 18.42-5.59 37.51-0.93 57.29 2.6-0.9 4.99-1.45 7.12-2.52 7.08-3.54 13.8-7.97 21.14-10.79 18.21-7 36.36-14.59 55.16-19.51 18.14-4.75 36.99-7.55 55.7-9.18 20-1.74 40.25-2.11 60.31-1.25 24.06 1.03 48.09 3.61 72.05 6.24 21.23 2.33 42.32 5.86 63.53 8.42 6.51 0.78 13.16 0.12 19.74 0.12z"/> <path class="st2" d="m723.02 1068.1c-0.46-0.3-0.93-0.6-1.39-0.91-0.96-0.89-1.91-1.78-2.87-2.67-0.69-0.48-1.38-0.97-2.07-1.45-0.42-0.86-0.83-1.71-1.25-2.57-0.78-2.06-1.55-4.12-2.33-6.17-1.77 0.4-3.54 0.79-5.32 1.19-2.99-1.87-5.97-3.74-8.96-5.61-0.39-0.25-0.78-0.51-1.17-0.76-0.42-0.18-0.84-0.35-1.26-0.53-0.97-0.62-1.94-1.25-2.91-1.87-0.4 0.06-0.72-0.08-0.95-0.42l-1.32-0.96c-1.65-1-3.31-1.99-4.96-2.99l-4.92-3.45-0.11-0.08c-0.63-6.05-5.52-6.5-9.94-7.56l-0.17-0.13c-0.87-0.76-1.74-1.53-2.61-2.29l-0.01-0.01c-0.86-0.82-1.73-1.64-2.59-2.47-0.85-0.85-1.69-1.7-2.54-2.55l0.01 0.01c-0.56-2.07-0.74-4.38-1.81-6.14-0.77-1.28-1.82-4.81-4.52-1.49-0.46-0.7-0.92-1.41-1.38-2.11 0.9-2.69 1.81-5.37 2.71-8.06 1.74 0.82 3.48 1.64 5.22 2.46 0.84 1.13 1.69 2.26 2.53 3.38 0.44 0.56 0.87 1.12 1.31 1.67l-0.1-0.11c0.4 0.48 0.79 0.95 1.19 1.43l0.01 0.01c1.23 1.28 2.45 2.57 3.68 3.85 1.31 1.23 2.62 2.46 3.92 3.69 0.46 0.43 0.93 0.85 1.39 1.28 0.42 0.32 0.83 0.65 1.25 0.97-0.69 4.23 2.05 4.32 5 4.14 1.63 1.16 3.26 2.32 4.89 3.49 0.69 0.48 1.39 0.96 2.08 1.43 0.63 0.42 1.26 0.83 1.89 1.25 0.79 0.5 1.58 0.99 2.37 1.49 1.31 0.81 2.62 1.63 3.93 2.44 1.41 0.81 2.83 1.62 4.24 2.43 0.36-0.1 0.63 0.02 0.8 0.36 1.34 0.75 2.67 1.51 4.01 2.26 1.2 0.58 2.39 1.16 3.59 1.74 1.26 1.12 2.53 2.24 3.79 3.35 1.27-0.71 2.55-1.43 3.82-2.14h8c0.61-5.47 0.61-5.47-6.31-18.46-6.15-11.54-1.62-19.86 11.41-21.02 4.61-0.41 9.31-0.42 13.79-1.41 9-1.99 11.8-11.9 5.42-18.51-2.04-2.11-4.39-3.93-6.62-5.85-4.32-3.73-7.9-7.93-6.32-14.12 1.64-6.39 6.39-9.61 12.6-10.94 3.7-0.79 7.53-1.19 11.08-2.4 10.14-3.45 11.67-11.04 4.25-18.75-4.48-4.66-8.52-9.74-12.76-14.63-0.37-0.77-0.75-1.54-1.12-2.31-2.31-1.24-4.55-3.37-6.94-3.56-6.29-0.5-12.65-0.15-18.98-0.14-3.33-0.01-6.65-0.01-9.98-0.02-4.23 0.41-8.47 0.82-12.7 1.24-1.76 0.57-3.52 1.14-5.27 1.7-0.74-0.01-1.48-0.02-2.21-0.03-1.62-0.65-3.9-2.3-4.74-1.76-2.12 1.39-3.59 3.77-5.32 5.75-0.51 0.22-1.01 0.45-1.52 0.67-4.1-0.16-7.89 0.17-8.54 5.44l-0.34-0.13 0.35 0.1c-6.87-0.02-15.27 9.78-15.19 17.73l0.04 0.02c-0.91 1.79-1.83 3.59-2.74 5.38-0.2 0.63-0.4 1.26-0.59 1.88-0.69 1.74-1.37 3.48-2.06 5.22-0.14 0.79-0.29 1.59-0.43 2.38l-2.04 10.74c0 2.97 0 5.94-0.01 8.91-0.04 2.47-0.44 5.01-0.01 7.4 0.36 2.02 1.69 3.87 2.6 5.8l-0.05-0.05c0.8 4.27 1.6 8.55 2.41 12.82-2.21 0.46-4.41 0.92-6.62 1.38-0.37-0.76-0.73-1.52-1.1-2.27-0.26-0.52-0.52-1.05-0.79-1.57-0.58-1.61-1.16-3.21-1.74-4.82-0.64-1.74-1.29-3.49-1.93-5.23l-0.63-3.51c0.84-8.95 1.76-17.89 2.41-26.85 0.06-0.87-1.59-1.87-2.45-2.81 0.42-1.69 0.85-3.37 1.27-5.06 0.45-1.34 0.89-2.67 1.34-4.01-0.13-0.39-0.04-0.73 0.26-1.01 6.03-2.9 8.56-7.6 7.33-14.24 0.22-0.37 0.44-0.74 0.66-1.11 0.61-0.65 1.22-1.3 1.83-1.95l0.14-0.45c0.79-0.92 1.57-1.84 2.36-2.75l-0.04 0.02c2.56-2.61 5.12-5.22 7.68-7.82 2.18-1.56 4.36-3.11 6.54-4.67l1.17-0.96c0.38-0.23 0.77-0.45 1.15-0.68 4.53 3.39 6.57 2.01 6.5-3.4 2.34-0.91 4.68-1.81 7.02-2.72 1.89-0.69 3.77-1.37 5.66-2.06 1.14-0.15 2.28-0.3 3.41-0.45 3.93-0.64 7.86-1.27 11.79-1.91 1.69-0.08 3.38-0.15 5.06-0.23 1.7 0.76 3.38 2.13 5.1 2.17 8.18 0.19 16.37 0.01 24.56-0.03 1.52 0.19 3.04 0.38 4.57 0.56 1.7 0.69 3.39 1.38 5.09 2.07 5.74-0.2 11.71-1.53 17.17-0.38 17.71 3.71 35.11 9.01 52.88 12.35 10.58 1.99 21.95 3.34 32.4 1.6 15.29-2.53 18.49-16.81 8.42-28.63-7.48-8.78-15.12-17.81-20.54-27.89-22.52-41.83-25.02-85.88-12.2-131.15 2.39-8.45 5.34-16.75 8.04-25.11 4.68-1.6 9.36-3.21 14.03-4.82-1.11 2.72-2.14 5.48-3.35 8.15-10.95 24.35-17.3 49.72-16.37 76.57 1.32 37.95 12.88 71.78 39.48 99.93 11.91 12.6 8.41 31.56-6.89 39.59-5.42 2.84-12 5.11-17.97 4.94-11.28-0.32-22.54-2.35-33.73-4.14-10.13-1.61-20.16-3.84-30.24-5.8-2.24 0.19-4.48 0.38-6.73 0.57 0.44 2.1 0.51 4.38 1.41 6.25 0.99 2.04 2.9 3.61 4.15 5.55 8.78 13.63 2.11 27.63-13.94 29.46-3.34 0.38-6.78 0.56-9.94 1.58-5.93 1.92-7.73 6.44-4.81 11.95 1.35 2.53 3.55 4.63 5.5 6.81 2.24 2.5 5.78 4.49 6.71 7.37 1.53 4.71 2.65 10.2 1.69 14.91-1.14 5.59-6.67 6.81-12.13 6.92-3.78 0.07-7.57 0.57-11.3 1.18-5.16 0.83-10.14 2.48-11.74 8.15-1.53 5.4 0.74 9.85 4.87 13.46 6.93 6.05 9.56 13.23 5.23 22.28 1.4 0.13 2.43 0.22 3.45 0.31 0.02 0.3 0.11 0.58 0.26 0.85 1.26 0.5 2.52 1 3.78 1.5 2.48 1.03 4.97 2.06 7.45 3.09 1.77 0.76 3.54 1.52 5.3 2.27 1.17 0.46 2.34 0.91 3.51 1.37-3.36 2.11-6.72 4.22-10.09 6.34-0.88-0.31-1.75-0.61-2.63-0.92-1.23-0.54-2.47-1.09-3.7-1.63-0.91-0.39-1.82-0.78-2.73-1.17-0.9-0.41-1.8-0.82-2.69-1.24-0.72-0.22-1.45-0.45-2.17-0.67-1.68-0.71-3.35-1.43-5.03-2.14-5.11-0.09-10.21-0.17-15.32-0.26-0.48-0.23-0.95-0.45-1.43-0.68 0 0 0.03 0.04 0.03 0.04-0.3-0.06-0.66-0.15-1.02-0.25zm1.98-5.91c-0.03 0.5-0.06 0.99-0.09 1.49 1.22 0.06 2.44 0.11 3.66 0.17 0.02-0.49 0.05-0.97 0.07-1.46-1.21-0.07-2.43-0.14-3.64-0.2zm-72.38-65.62h-1.16v3.65h1.16v-3.65zm88.51-85.76c-1.19-0.78-1.89-1.57-2.4-1.46-0.53 0.11-0.98 1.05-1.23 1.71-0.06 0.16 0.82 0.99 1.21 0.95 0.64-0.06 1.24-0.58 2.42-1.2z"/> <path class="st3" d="m692.55 1046.4c0.23 0.33 0.55 0.47 0.95 0.42 0.97 0.62 1.94 1.25 2.91 1.87 0.42 0.18 0.84 0.35 1.26 0.53 0.39 0.25 0.78 0.51 1.17 0.76 2.99 1.87 5.97 3.74 8.96 5.61 2.09 1.01 4.82 4.92 5.32-1.19 0.78 2.06 1.55 4.12 2.33 6.17 0.42 0.86 0.83 1.71 1.25 2.57 0.69 0.48 1.38 0.97 2.07 1.45 0.2 0.8 0.39 1.6 0.59 2.41-10.32-4.98-20.86-9.56-30.92-15.03-17.46-9.49-32.98-21.43-42.96-39.11-26.33-46.61 2.83-105.29 55.9-113.61 15.93-2.5 31.64-1.74 47.18 1.04 27.35 4.88 54.46 11.16 81.79 16.16 8.36 1.53 17.21 1.58 25.67 0.73 3.48-0.35 7.76-4.32 9.35-7.73 1.06-2.28-1.08-7.35-3.34-9.67-24.88-25.6-37.08-56.83-41.51-91.61-4.24-33.29 2-65.05 14.33-95.88 2.44-0.58 4.87-1.16 7.31-1.74-2.69 8.37-5.64 16.66-8.04 25.11-12.82 45.27-10.32 89.32 12.2 131.15 5.42 10.07 13.07 19.1 20.54 27.89 10.07 11.83 6.86 26.1-8.42 28.63-10.46 1.73-21.82 0.39-32.4-1.6-17.77-3.34-35.17-8.64-52.88-12.35-5.46-1.14-11.43 0.19-17.17 0.39-1.7-0.69-3.39-1.38-5.09-2.07-1.52-0.19-3.04-0.38-4.57-0.56-9.89-0.71-19.77-1.43-29.65-2.14-1.69 0.08-3.38 0.15-5.06 0.23-3.93 0.64-7.86 1.27-11.79 1.91-1.14 0.15-2.28 0.3-3.41 0.45-1.89 0.69-3.77 1.37-5.66 2.06-2.34 0.91-4.68 1.81-7.02 2.72-2.17 1.13-4.33 2.27-6.5 3.4-0.38 0.23-0.77 0.45-1.15 0.68l-1.17 0.96c-2.18 1.56-4.36 3.11-6.54 4.67-2.56 2.61-5.12 5.22-7.68 7.82l0.04-0.02c-0.79 0.92-1.57 1.84-2.36 2.75l-0.14 0.45c-0.61 0.65-1.22 1.3-1.83 1.95-0.22 0.37-0.44 0.74-0.66 1.11-2.44 4.75-4.88 9.5-7.33 14.24-0.3 0.28-0.39 0.62-0.26 1.01-0.45 1.34-0.89 2.67-1.34 4.01-0.42 1.69-0.85 3.37-1.27 5.06-2.78 9.89-2.87 19.78 0.04 29.66l0.63 3.51c0.64 1.74 1.29 3.49 1.93 5.23 0.58 1.61 1.16 3.21 1.74 4.82 0.26 0.52 0.52 1.05 0.79 1.57 0.37 0.76 0.73 1.52 1.1 2.27 1.31 2.23 2.62 4.46 3.93 6.69 0.46 0.7 0.92 1.41 1.38 2.11 2.11 2.54 4.22 5.09 6.34 7.63l-0.01-0.01c0.85 0.85 1.69 1.7 2.54 2.55 0.86 0.82 1.73 1.64 2.59 2.47l0.01 0.01c0.87 0.76 1.74 1.53 2.62 2.29l0.17 0.13c3.31 2.52 6.63 5.04 9.94 7.56l0.11 0.08 4.92 3.45c1.65 1 3.31 1.99 4.96 2.99 0.4 0.29 0.84 0.61 1.27 0.93z"/> <path class="st4" d="m1223.7 1089.6c-7.5 3.32-15.11 6.42-22.48 10.01-10.09 4.91-16.12 13.05-18.26 24.15-8.01 41.63 4.37 79.06 23.57 115.1 17.04 31.98 40.2 58.7 69.68 79.72 9.21 6.57 19.13 12.25 29.08 17.67 18.76 10.22 31.54 24.78 36.18 46.06 3.79 17.39-0.31 33.49-7.87 48.86-13.97 28.43-36.51 48.09-65 61.07-7.73 3.52-16.14 5.54-24.24 8.25-2.63-0.32-5.27-0.64-7.69-0.94 4.66-2.72 8.39-4.89 12.12-7.07 0 0 0.03 0.05 0.03 0.05h5.42c-1.79-0.72-2.3-0.93-2.81-1.13 0.95-0.43 1.88-0.89 2.84-1.28 33.71-13.62 60.64-34.66 75.09-69.15 11.08-26.44 4.32-54.52-17.9-71.68-8.27-6.39-17.83-11.11-26.81-16.6-11.47-6.43-19.61-18.09-33.19-21.2-0.83-1.15-1.5-2.46-2.51-3.44-28.83-28.05-51.19-60.38-64.37-98.58-9.51-27.59-15.09-55.75-9.09-85.05 1.98-9.66 5.59-18.53 13.99-24.61 1.03-0.67 2.06-1.34 3.09-2l0.19-0.16c0.96-0.62 1.92-1.25 2.87-1.87v0.07c1.16-0.6 2.32-1.19 3.47-1.79l0.14 0.03c1.34-0.7 2.68-1.4 4.03-2.1l-0.01-0.01c5.23-1.59 10.46-3.18 15.69-4.75 2.32-0.69 5.08-2.23 4.75 2.37z"/> <path class="st5" d="m1226.2 751.3 10.11-0.09c1.48 8.3 11.15 5.19 14.52 11.2 0.73-3.1 0.38-5.68 0.85-8.09 0.35-1.78 1.42-3.94 2.85-4.79 0.77-0.46 3.82 1.09 4.37 2.37 2.12 4.93 5.7 3.78 9.39 2.94 1.33-0.3 2.69-0.46 4.41-0.75 0.32 4.79 0.6 9.06 0.9 13.72 3.82-0.62 6.89-1.07 9.94-1.62 5.44-0.98 7.21 1.1 5.46 6.49-0.72 2.22-1.39 4.46-2.33 7.46 1.99-0.33 2.84-0.73 3.53-0.54 2.72 0.72 6.9 0.87 7.77 2.62 2.04 4.07-0.64 7.04-4.83 8.51-2.71 0.95-5.36 2.08-8.57 3.33 3.1 3.7 5.86 7 9.36 11.18-3.81 1.65-6.88 3.84-10.12 4.13s-6.65-1.33-10.22-2.17c0.3 4.53 0.77 8.25 0.68 11.95-0.04 1.85-0.96 5.14-1.74 5.22-2.02 0.21-4.56-0.52-6.23-1.76-2.5-1.86-4.44-4.49-6.65-6.83-2.02 4.66-3.2 8.91-5.53 12.38-2.98 4.43-5.73 3.94-8.95-0.78-0.46-3.72-0.92-7.44-1.56-12.62-3.82 2.8-6.16 5.08-8.96 6.38-1.83 0.85-4.31 0.29-6.51 0.37 0.23-1.96 0.28-3.97 0.73-5.89 0.77-3.33 1.79-6.61 3.03-11.06-4.01 0-6.77 0.44-9.31-0.13-2.21-0.5-4.98-1.68-5.97-3.42-0.7-1.22 0.8-4.17 2-5.88 1.62-2.32 3.88-4.19 5.29-5.66-2.86-3.67-8.43-7.87-7.77-10.52 1.97-7.91 9.42-6.21 15.87-5.05-2.01-7.9-3.91-15.25-5.81-22.6z"/> <path class="st6" d="m842.15 710.5c-2.44 0.58-4.88 1.16-7.31 1.74-2.34-0.06-4.73 0.16-6.99-0.27-1.67-0.32-3.18-1.51-4.77-2.31 3.48-0.61 7.13-0.75 10.42-1.91 35.7-12.61 71.99-22.59 109.83-26.37 65.56-6.55 129.25 1.81 191.3 23.52 10.34 3.62 20.46 7.86 30.7 11.75 9.71 3.69 13.3 2.74 16.31-7.19 4.2-13.85 7.79-28.01 10.09-42.29 2.01-12.49-5.32-21.27-15.68-27.31-19.23-11.22-39.8-19.39-61.23-25.22-68.08-18.53-137.08-23.24-206.95-12.91-23.46 3.47-46.12 9.99-67.77 19.81 2.02-2.31 3.96-4.69 6.09-6.89 0.96-0.99 2.29-1.6 3.46-2.39 19.86-5.27 39.73-10.54 59.59-15.81 14.43-1.41 28.87-2.82 43.3-4.23 10.86-0.17 21.71-0.35 32.57-0.52 10.28 0.36 20.57 0.71 30.85 1.07 8.91 0.92 17.81 1.84 26.72 2.75 7.97 0.83 15.93 1.66 23.9 2.49 7.51 1.68 15.01 3.36 22.52 5.04l18.36 4.5c4.94 1.58 9.88 3.17 14.82 4.75 4.98 1.19 9.95 2.38 14.93 3.57 4.31 2.13 8.62 4.25 12.93 6.38 4.31 1.88 8.61 3.77 12.92 5.65 3.84 1.86 7.67 3.72 11.51 5.57 3.68 2.46 7.37 4.92 11.05 7.39 3.3 4.79 6.61 9.59 9.91 14.38-0.72 11.33-1.44 22.65-2.16 33.98-1.7 5.16-3.39 10.31-5.24 15.93 1.71 0.87 3.34 1.7 4.97 2.53 0.14 1.31 0.29 2.62 0.43 3.93-4.55-3.1-8.1-2.37-10.39 2.8-3.07 6.92-9.86 7.36-15.85 9.22-0.64-0.06-1.29-0.12-1.94-0.18 0-0.4-0.04-0.79-0.14-1.18-1.75-4.25-4.15-6.84-8.89-3.51-4.82-1.84-9.64-3.67-14.46-5.51-6.01-2.2-12.15-4.1-18.01-6.66-17.77-7.76-36.74-10.91-55.5-14.91-6.13-1.31-12.41-1.9-18.62-2.84-10.13-1.53-20.25-4.27-30.4-4.39-25.08-0.3-50.21 0.05-75.26 1.23-11.83 0.56-23.56 3.51-35.3 5.61-9.58 1.72-19.1 3.79-28.65 5.71-0.42 0.38-0.84 0.75-1.26 1.13-0.07 0.37-0.14 0.75-0.22 1.12-7.23 1.78-14.46 3.57-21.69 5.35-0.32 0.4-0.63 0.8-0.95 1.2l0.15-0.08c-4.64 1.57-9.32 3.17-14 4.78z"/> <path class="st7" d="m1248.8 1492.5c-3.73 2.18-7.46 4.35-12.12 7.07 2.42 0.3 5.05 0.62 7.69 0.94-18.47 6.15-37.01 6.46-55.85 1.47-20.05-5.32-36.68-16.45-52.58-29.18-26.25-21.01-46.4-47.48-66.82-73.75-14.46-18.6-29.04-37.11-43.82-55.46-3.54-4.39-7.9-8.18-12.2-11.9-8.32-7.2-18.08-7.42-26.69 1.28-12.67 12.8-24.69 26.32-36.12 40.25-19.62 23.92-38.55 48.39-57.83 72.59-0.85 1.07-2.22 1.74-3.35 2.6-0.31-0.3-0.63-0.61-0.94-0.91 1.18-1.76 2.36-3.51 3.54-5.27 4.54-5.88 4.86-13.5 9.99-19.65 19.97-24 38.47-49.2 58.23-73.38 7.27-8.9 15.92-16.9 24.95-24.04 9.08-7.17 19.94-7.56 29.52-0.77 7.31 5.18 14.33 11.28 19.99 18.2 15.22 18.62 29.47 38.02 44.46 56.84 8.22 10.32 17.13 20.08 25.74 30.09 1.36 10.55 6.41 18.43 16.43 22.71 6.76 1.8 10.85 7.35 16.15 11.25 11.33 8.35 22.47 17.24 34.75 23.97 18.28 10.02 38.44 11.83 59.01 8.96 1.39-0.29 2.78-0.58 4.18-0.87 4.54-1.02 9.12-2.03 13.69-3.04z"/> <path class="st8" d="m702.64 1475.2c-20.3-16.15-36.02-35.65-42.5-61.21-6.94-27.35 1.62-56.04 26.09-71.69 7.45-4.77 14.93-9.52 22.57-13.98 38.69-22.58 66.82-54.9 87.39-94.28 14.78-28.31 23.38-58.23 23.11-90.3-0.11-12.63-0.73-25.44-9.36-36 0.62-1.36 1.23-2.72 1.85-4.09 0.5-0.04 1.01-0.09 1.51-0.13 2.54 3.18 5.85 6.01 7.47 9.6 5.52 12.18 6.23 25.33 5.62 38.41-1.95 41.75-15.77 79.62-40.08 113.31-11.51 15.95-25.32 30.25-38.09 45.29-0.44-0.09-0.8 0.04-1.09 0.37-0.32 0.14-0.64 0.28-0.95 0.41 0.31 0.19 0.63 0.37 0.94 0.56-3.11 1.56-6.42 2.84-9.3 4.74-15.3 10.1-30.5 20.37-45.74 30.56-22.13 14.8-31.57 40.38-24.42 65.91 5.95 21.26 18.33 38.2 34.84 52.41l3.81 3.66c-1.24 2.16-2.45 4.31-3.67 6.45z"/> <path class="st9" d="m952.33 514.92c8.01-3.06 16.02-6.12 24.04-9.19 2.9 1.2 5.77 2.49 8.71 3.58 38.52 14.2 72.2 35.83 100.26 65.86 4.95 5.29 8.7 11.7 13 17.6l-10.44 7.98c-11.69-11.82-22.6-24.57-35.24-35.26-29.3-24.76-63.42-40.59-100.33-50.57z"/> <path class="st9" d="m1066.6 598c-7.97-0.83-15.93-1.66-23.9-2.49-0.36-0.51-0.62-1.13-1.08-1.52-37.4-32.11-81.14-49.91-129.51-57.2 6.69-4.23 13.38-8.45 20.07-12.68 1.32 0.52 2.6 1.22 3.96 1.53 25.65 5.76 50.33 14.19 73.29 27.16 21.4 12.08 41.19 26.25 57.17 45.2z"/> <path class="st10" d="m1245.2 827.37c3.22 4.71 5.97 5.21 8.95 0.78 2.33-3.47 3.51-7.72 5.53-12.38 2.21 2.34 4.15 4.97 6.65 6.83 1.67 1.24 4.2 1.97 6.23 1.76 0.79-0.08 1.7-3.37 1.74-5.22 0.09-3.7-0.39-7.42-0.68-11.95 3.57 0.84 6.98 2.46 10.22 2.17s6.31-2.48 10.12-4.13c-3.5-4.18-6.26-7.47-9.36-11.18 3.2-1.25 5.85-2.38 8.57-3.33 4.18-1.47 6.87-4.44 4.83-8.51-0.88-1.75-5.05-1.9-7.77-2.62-0.69-0.18-1.54 0.21-3.53 0.54 0.93-3 1.61-5.24 2.33-7.46 1.74-5.39-0.02-7.47-5.46-6.49-3.05 0.55-6.12 1-9.94 1.62-0.31-4.66-0.59-8.93-0.9-13.72-1.72 0.29-3.08 0.45-4.41 0.75-3.7 0.84-7.27 1.99-9.39-2.94-0.55-1.28-3.59-2.83-4.37-2.37-1.43 0.85-2.5 3.01-2.85 4.79-0.47 2.41-0.12 4.98-0.85 8.09-3.37-6.01-13.04-2.91-14.52-11.2 5.29-10.76 8.71-12.03 19.28-7.36 1.12 0.49 2.73 0.69 3.83 0.27 11.03-4.21 12.31-3.82 18.11 6.19 0.63 1.09 1.35 2.13 1.89 2.98 3.27 0 6.46-0.49 9.42 0.11 5.43 1.09 5.93 5.77 6.65 10.27 0.28 1.77 1.06 4.11 2.39 4.97 9.98 6.43 10.96 10.3 4.82 21.27 6.66 11.05 6.12 13.37-4.99 21.55 2.08 12.06 0.01 14.63-12.46 16.08-1.48 0.17-3.4 1.52-4.08 2.85-5.53 10.79-8.26 11.65-19.36 5.35-1.21 1.27-2.44 2.64-3.76 3.93-4.88 4.77-10.39 4.51-14.61-0.93-1.87-2.42-3.42-4.83-7.01-3.45-1.42-7.41 4.63-6.58 8.74-7.91z"/> <path class="st11" d="m1066.6 598c-15.99-18.94-35.77-33.12-57.17-45.2-22.96-12.97-47.64-21.4-73.29-27.16-1.37-0.31-2.65-1.01-3.96-1.53 6.72-3.07 13.44-6.13 20.16-9.19 36.91 9.99 71.03 25.82 100.32 50.57 12.65 10.69 23.55 23.44 35.24 35.26 0.41 0.76 0.81 1.53 1.22 2.29-7.5-1.68-15.01-3.36-22.52-5.04z"/> <path class="st9" d="m998 500.44c9.16-1.58 18.33-3.17 27.49-4.76 1.2 1.06 2.23 2.48 3.62 3.11 36.6 16.79 66.43 41.89 90.7 73.82 0.4 0.84 0.8 1.69 1.2 2.54-3.48 3.51-6.96 7.03-10.44 10.54-0.72-1.04-1.43-2.08-2.15-3.12-11.89-17.11-27.07-31.04-43.08-44.12-20.23-16.53-43.33-28.09-67.34-38.01z"/> <path class="st11" d="m912.11 536.79c48.37 7.29 92.1 25.09 129.51 57.2 0.46 0.39 0.72 1.01 1.08 1.52-8.91-0.92-17.81-1.84-26.72-2.75-1.06-0.97-2.03-2.08-3.21-2.87-35.26-23.67-74.09-37.02-116.44-40.19 5.26-4.31 10.52-8.61 15.78-12.91z"/> <path class="st11" d="m998 500.44c24 9.92 47.1 21.47 67.35 38.02 16.01 13.08 31.18 27.01 43.08 44.12-2.93 3.42-5.86 6.83-8.78 10.25-0.44-0.02-0.87-0.04-1.31-0.06-4.3-5.89-8.06-12.3-13-17.6-28.06-30.04-61.74-51.66-100.26-65.86-2.94-1.08-5.81-2.38-8.71-3.58 7.21-1.76 14.42-3.53 21.63-5.29z"/> <path class="st7" d="m1223.7 1089.6c0.33-4.61-2.43-3.06-4.74-2.37-5.23 1.57-10.46 3.17-15.69 4.75 2.38-1.2 4.68-2.57 7.14-3.58 16.66-6.88 33.36-13.69 50.04-20.52 10.45 3 18.64 0.13 24.49-9.23 0.67-1.08 2.28-1.57 3.45-2.33 0.36-0.31 0.73-0.61 1.09-0.92l0.09-0.06c2.2-1.21 4.4-2.41 6.61-3.62 0.39 0.06 0.7-0.08 0.94-0.39 7-4.24 14.53-7.83 20.88-12.89 8.48-6.76 16.06-14.65 24.02-22.06 1.16-1.68 2.31-3.35 3.47-5.03 0.66-0.94 1.32-1.89 1.97-2.83 0.15-0.43 0.29-0.86 0.44-1.29 0.72-1.26 1.44-2.52 2.17-3.78 1.03-2.79 2.05-5.58 3.08-8.38 0.72-2.68 1.44-5.37 2.16-8.05l0.36-3.33c0-6.22-0.01-12.44-0.01-18.66-0.42-2.41-0.84-4.83-1.26-7.24-0.42-1.41-0.83-2.82-1.25-4.23 0.15-0.32 0.08-0.57-0.2-0.77-1.67-3.83-3.33-7.66-5-11.5-2.61-3.76-5.21-7.53-7.82-11.29-0.78-0.85-1.57-1.7-2.35-2.55l-0.03-0.03c-0.82-0.86-1.65-1.72-2.47-2.58-3.39-2.95-6.78-5.9-10.18-8.85 0.85-2.13 1.71-4.27 2.56-6.4 19.18 11.05 31.26 27.65 35.33 49.13 7.45 39.27-10.46 67-42.34 87.5-21.84 14.05-45.42 24.5-69.89 33.08-9.1 3.22-18.04 6.86-27.06 10.3z"/> <path class="st9" d="m896.33 549.69c42.34 3.17 81.17 16.52 116.44 40.19 1.18 0.79 2.14 1.91 3.21 2.87-10.28-0.36-20.57-0.71-30.85-1.07-15.45-6.41-30.44-14.54-46.47-18.77-18.58-4.89-38.06-6.35-57.15-9.29 4.93-4.64 9.88-9.29 14.82-13.93z"/> <path class="st4" d="m1165.2 722.25c0.1 0.39 0.14 0.78 0.14 1.18 0.74 0.85 1.49 1.7 2.23 2.55 7.24 15.45 10.29 31.89 11.71 48.74 2.06 24.46-0.81 48.42-9.29 71.31-6.88 18.57-16.27 36.02-30.77 50.17-3.63 3.54-8.93 7.1-6.06 13.26 2.83 6.09 8.29 8.55 15.11 8.09 3.56-0.24 7.16 0.05 10.74 0.1-3.74 0.55-7.48 1.1-11.7 1.72 5.47 1.06 10.48 2.03 15.48 3-8.03-0.05-16.05-0.1-24.08-0.15-0.85-0.32-1.7-0.63-2.55-0.95-1.14-0.52-2.28-1.03-3.42-1.55-0.97-0.73-1.95-1.46-2.92-2.19-0.31-0.3-0.63-0.61-0.94-0.91-0.51-0.63-1.02-1.26-1.53-1.89l-1.47-3.63c-0.96-6.75 1.35-12.09 6-17.12 15.5-16.77 26.87-36.02 33.54-57.97 11.33-37.3 9.53-73.91-5.58-109.86 1.78-1.3 3.57-2.6 5.36-3.9z"/> <path class="st7" d="m702.64 1475.2c1.21-2.15 2.43-4.3 3.64-6.44 6.7 4.34 13.12 9.21 20.14 12.93 25.22 13.38 51.76 20.18 80.33 13.51 23.04-5.38 41.57-18.84 58.86-34.24 3.9-3.48 7.06-7.92 12.81-8.55 2.6-1.03 5.21-2.06 7.81-3.08 0.24 0.28 0.48 0.55 0.71 0.84-1.26 1.91-2.2 4.16-3.83 5.67-14.97 13.85-30.26 27.31-48.5 36.88-27.5 14.43-55.92 16.37-85.45 6.95-17.01-5.42-32.77-12.94-46.52-24.47z"/> <path class="st12" d="m1185.6 640.84c-3.68-2.46-7.37-4.92-11.05-7.38-0.82-10.89-0.85-21.91-2.62-32.64-4.05-24.56-16.2-45.46-31.32-64.81-0.13-2.58-0.27-5.15-0.43-8.28 1.24-0.83 3.14-2.09 5.05-3.36l11.31 10.17c22.85 31.83 34.64 66.69 29.06 106.3z"/> <path class="st11" d="m1119.8 572.62c-24.27-31.94-54.09-57.03-90.7-73.82-1.39-0.64-2.42-2.06-3.62-3.11 8.42-0.01 16.85-0.02 25.27-0.04 6.84 4.45 13.7 8.85 20.5 13.35 21.89 14.46 41.21 31.63 56.12 53.42-2.52 3.4-5.05 6.8-7.57 10.2z"/> <path class="st11" d="m881.5 563.63c19.09 2.95 38.57 4.4 57.15 9.29 16.03 4.22 31.02 12.36 46.47 18.77-10.86 0.18-21.72 0.35-32.57 0.53-3.92-1.47-7.79-3.11-11.78-4.38-23.06-7.33-46.8-10.06-70.9-10.14 3.88-4.7 7.75-9.39 11.63-14.07z"/> <path class="st9" d="m1127.4 562.42c-14.91-21.8-34.23-38.96-56.12-53.42-6.8-4.5-13.67-8.9-20.5-13.35 8.96 0.44 17.93 0.82 26.88 1.43 1.01 0.07 1.93 1.39 2.89 2.13 2.59 1.67 5.19 3.33 7.77 5.01 17.17 11.2 31.69 25.32 44.98 40.8 0.62 1.54 1.23 3.08 1.85 4.62-2.24 4.37-4.48 8.74-6.71 13.11-0.35-0.11-0.7-0.22-1.04-0.33z"/> <path class="st1" d="m1245.2 827.37c-4.11 1.32-10.16 0.5-8.75 7.92-9.06 2.37-11.22 0.5-14.05-12.21-11.14-2.52-12.15-4.17-10.58-15.86 0.17-1.29-0.85-3.07-1.84-4.14-6.81-7.35-6.95-9.27-1.88-17.52 0.82-1.33 0.7-3.78 0.1-5.36-2.68-7.03-0.48-12.83 6.74-14.96 3.7-1.09 4.76-2.93 5.32-6.45 0.52-3.26 0.79-7.55 5.95-7.48 1.9 7.35 3.8 14.7 5.84 22.6-6.45-1.16-13.9-2.86-15.87 5.05-0.66 2.65 4.9 6.85 7.77 10.52-1.41 1.47-3.67 3.34-5.29 5.66-1.19 1.71-2.69 4.65-2 5.88 0.99 1.75 3.76 2.92 5.97 3.42 2.54 0.57 5.3 0.13 9.31 0.13-1.23 4.45-2.25 7.72-3.03 11.06-0.45 1.91-0.5 3.92-0.73 5.89 2.19-0.07 4.68 0.49 6.51-0.37 2.8-1.3 5.14-3.58 8.96-6.38 0.63 5.17 1.09 8.89 1.55 12.6z"/> <path class="st12" d="m1193.4 689.21c0.72-11.33 1.44-22.65 2.16-33.98-0.35-18.82 0.24-37.72-1.4-56.42-1.01-11.49-5.42-22.69-8.3-34.02 9.75 10.76 17.31 22.87 22.55 36.42 0.04 3.18 0.08 6.35 0.12 9.52 0.01 13.51 0.01 27.02 0.02 40.53-2.14 13.81-6.11 26.89-15.15 37.95z"/> <path class="st12" d="m1193.6 711.59c-0.14-1.31-0.29-2.62-0.43-3.93 8.41-6.45 13.62-15.21 17.95-24.65 7.98-17.42 9.34-35.96 9.45-54.73 1.62 2.74 3.63 5.32 4.8 8.24 2.56 6.41 4.71 12.99 7.02 19.5-0.54 3.27-1.11 6.53-1.6 9.8-3.22 21.35-12.78 39.33-28.6 54.01-2.87-2.74-5.73-5.49-8.59-8.24z"/> <path class="st9" d="m869.87 577.69c24.1 0.09 47.84 2.81 70.9 10.14 3.99 1.27 7.86 2.91 11.78 4.38-14.44 1.41-28.87 2.82-43.31 4.23-16.81-3.25-33.69-4.21-50.69-1.66 3.78-5.7 7.55-11.39 11.32-17.09z"/> <path class="st13" d="m1185.8 564.78c2.88 11.33 7.3 22.53 8.3 34.02 1.64 18.7 1.05 37.6 1.4 56.42-3.31-4.79-6.61-9.58-9.91-14.38 5.58-39.61-6.21-74.47-29.07-106.3 1.83 0.78 4.2 1.08 5.39 2.43 8.1 9.15 15.96 18.52 23.89 27.81z"/> <path class="st13" d="m1220.5 628.28c-0.11 18.77-1.47 37.31-9.45 54.73-4.33 9.44-9.53 18.2-17.95 24.65-1.63-0.83-3.26-1.66-4.97-2.53 1.85-5.62 3.55-10.77 5.24-15.93 9.04-11.06 13.01-24.14 15.15-37.94 2.89-13.51 2.89-27.02-0.02-40.53-0.04-3.17-0.08-6.35-0.12-9.52 4.04 9.02 8.08 18.04 12.12 27.07z"/> <path class="st13" d="m1202.1 719.83c15.82-14.67 25.38-32.66 28.6-54.01 0.49-3.27 1.07-6.53 1.6-9.8 2.53 8.41 5.07 16.83 7.6 25.24-5.41 10.85-10.1 22.14-16.5 32.35-3.47 5.53-9.85 9.23-14.92 13.76-2.12-2.51-4.25-5.02-6.38-7.54z"/> <path class="st12" d="m1208.5 727.37c5.07-4.53 11.45-8.23 14.92-13.76 6.4-10.22 11.1-21.51 16.5-32.35 2.15 7.42 4.3 14.83 6.45 22.25-6.34 13.29-14.85 24.86-26.45 34.09-1.34 1.07-1.89 3.13-2.8 4.74-2.88-4.99-5.75-9.98-8.62-14.97z"/> <path class="st4" d="m1327.6 909.67c-0.85 2.13-1.71 4.27-2.56 6.4-26.87-15.21-55.09-13.59-83.73-6.71-4.17-0.44-8.34-0.87-12.51-1.31-0.05-1.06-0.11-2.12-0.16-3.18 27.33-6.01 54.71-11.7 82.48-2.79 5.72 1.83 11 5.02 16.48 7.59z"/> <path class="st11" d="m1133.3 545.02c-13.29-15.48-27.81-29.6-44.98-40.8-2.58-1.68-5.18-3.34-7.77-5.01 9.74 2.44 19.49 4.89 29.23 7.33 9.18 8.53 18.36 17.06 27.55 25.59l0.08 0.1c0.42 0.89 0.83 1.78 1.25 2.68-1.79 3.36-3.58 6.74-5.36 10.11z"/> <path class="st3" d="m811.77 1103.7c-0.62 1.36-1.23 2.72-1.85 4.09-9.97-5.18-19.68-10.99-29.98-15.39-17.37-7.42-35.13-13.93-52.7-20.88-1.09-0.43-1.97-1.39-2.94-2.11 0.4-0.12 0.8-0.24 1.21-0.36 5.11 0.09 10.21 0.17 15.32 0.26 1.68 0.71 3.35 1.43 5.03 2.14 0.72 0.22 1.45 0.45 2.17 0.67 0.9 0.41 1.8 0.82 2.69 1.24 0.91 0.39 1.82 0.78 2.73 1.17 1.23 0.54 2.47 1.09 3.7 1.63 0.88 0.31 1.75 0.61 2.63 0.92 12.61 5.17 25.35 10.05 37.75 15.67 5.18 2.34 9.64 6.27 14.42 9.47l-0.24 0.25c-0.16 0.1-0.46 0.26-0.45 0.3 0.1 0.29 0.27 0.55 0.42 0.82-0.01-0.01 0.09 0.11 0.09 0.11z"/> <path class="st14" d="m858.55 594.78c17-2.55 33.88-1.6 50.69 1.66-19.86 5.27-39.73 10.54-59.59 15.81 2.97-5.82 5.94-11.64 8.9-17.47z"/> <path class="st13" d="m1217.1 742.34c0.91-1.6 1.46-3.67 2.8-4.74 11.6-9.24 20.11-20.81 26.45-34.09 0.87 6.72 1.75 13.44 2.62 20.15-4.92 4.51-9.84 9.02-14.75 13.53-4.72 2.28-9.39 4.65-14.2 6.71-0.63 0.28-1.93-0.99-2.92-1.56z"/> <path class="st3" d="m1228.7 904.86c0.05 1.06 0.11 2.12 0.16 3.18-21.59 4.92-43.18 9.84-64.77 14.76-0.41-0.14-0.83-0.29-1.24-0.43-5.01-0.97-10.01-1.94-15.48-3 4.22-0.62 7.96-1.17 11.7-1.72 19.85-3.68 39.69-7.37 59.54-11.04 1.65-0.3 3.32-0.47 4.98-0.7l2.67-0.72c0.81-0.11 1.63-0.22 2.44-0.33z"/> <path class="st9" d="m1138.6 534.9c-0.42-0.89-0.83-1.79-1.25-2.68 0.18-0.21 0.36-0.42 0.54-0.62-0.21 0.18-0.42 0.35-0.63 0.53-9.18-8.53-18.36-17.06-27.55-25.59 13.21 3.2 24.86 9.5 35.5 17.83-1.9 1.27-3.8 2.53-5.05 3.36 0.16 3.13 0.3 5.71 0.43 8.28-0.66-0.37-1.32-0.74-1.99-1.11z"/> <path class="st15" d="m1234.2 737.2c4.92-4.51 9.84-9.03 14.75-13.53 3.33 10.1 2.08 12.22-7.9 13.21-2.27 0.22-4.56 0.22-6.85 0.32z"/> <path class="st14" d="m719.34 1067c-0.2-0.8-0.39-1.6-0.59-2.41 0.96 0.89 1.91 1.78 2.87 2.67-0.76-0.09-1.52-0.18-2.28-0.26z"/> <path class="st6" d="m834.52 624.39c-0.84 0.46-1.67 0.93-2.51 1.39 0.83-0.46 1.67-0.93 2.51-1.39z"/> <path class="st7" d="m1167.6 725.98c-0.74-0.85-1.49-1.7-2.23-2.55 0.65 0.06 1.29 0.12 1.94 0.18 0.09 0.79 0.19 1.58 0.29 2.37z"/> <path class="st4" d="m1226.2 905.19-2.67 0.72 2.67-0.72z"/> <path class="st7" d="m889.07 1448.4c-0.71 0.59-1.41 1.18-2.11 1.76-0.23-0.28-0.47-0.56-0.71-0.83 0.63-0.61 1.25-1.23 1.88-1.84 0.31 0.3 0.62 0.61 0.94 0.91z"/> <path class="st14" d="m725.5 1069c-0.4 0.12-0.8 0.24-1.21 0.36-0.21-0.32-0.28-0.66-0.22-1.03 0.47 0.22 0.95 0.45 1.43 0.67z"/> <path class="st14" d="m723.02 1068.1 1.08 0.3c-0.4 0.03-0.76-0.06-1.08-0.3z"/> <path class="st5" d="m1178.8 676.32c-6.58 0-13.24 0.66-19.72-0.12-21.21-2.56-42.3-6.08-63.53-8.42-23.96-2.63-47.98-5.21-72.05-6.24-20.06-0.86-40.31-0.49-60.31 1.25-18.71 1.63-37.56 4.44-55.7 9.18-18.81 4.92-36.95 12.51-55.16 19.51-7.34 2.82-14.06 7.25-21.14 10.79-2.13 1.07-4.52 1.62-7.12 2.52-4.65-19.78-5.25-38.87 0.93-57.29 3.07-9.15 11.6-14.83 21.06-17.66 19.87-5.95 39.61-12.54 59.8-17.13 21.74-4.95 43.93-6.89 66.2-2.25 23.39 4.87 46.87 9.26 70.21 14.35 19.47 4.25 38.96 8.6 58.11 14.04 15.33 4.36 30.27 10.14 45.18 15.84 8.76 3.35 17.23 7.56 25.6 11.85 3.17 1.63 5.67 4.57 8.48 6.91-0.29 0.96-0.56 1.92-0.84 2.87z"/> <path class="st16" d="m716.74 914.84c3.33 0.01 6.65 0.01 9.98 0.02 8.64 1.23 17.28 2.47 25.92 3.7 0.37 0.77 0.75 1.54 1.12 2.31-0.44 0.65-1.42 1.64-1.25 1.89 3.77 5.73 7.18 11.79 11.67 16.91 4.1 4.68 4.15 8.24-1.78 10.61-3.46 1.38-7.28 1.97-10.98 2.63-7.55 1.36-13.3 4.52-15.57 12.61-2.1 7.46 0.31 13.14 5.72 18.01 2.5 2.25 5.33 4.16 7.61 6.6 4.4 4.7 3.08 10.16-3.05 12.3-2.71 0.95-5.77 0.92-8.67 1.32-3.73 0.52-7.6 0.56-11.18 1.61-10.06 2.95-14.08 11.41-10.12 21.09 1.58 3.87 3.77 7.49 5.69 11.22 0.24 3.33-0.94 4.18-4.04 2.62-18.38-9.24-37.83-16.76-51.86-32.87-0.58-0.67-1.78-0.8-2.69-1.19-1.19-4.16-2.74-8.26-3.53-12.49-4.25-22.86 1.09-43.17 16.45-60.78 2.25-2.58 4.1-5.51 6.13-8.28l0.01 0.19c0.87-0.49 1.74-0.98 2.6-1.48l-0.28 0.07c2.65-1.22 5.3-2.44 7.94-3.65l-0.09 0.04c2.09-0.7 4.17-1.39 6.26-2.09 1.76-0.57 3.52-1.14 5.27-1.7 4.25-0.39 8.48-0.8 12.72-1.22z"/> <path class="st17" d="m856.98 704.57c7.23-1.78 14.46-3.57 21.69-5.35 4.08 1.08 7.54 2.48 6.97 7.93-0.16 1.57 1.4 3.32 2.17 4.99-6.14 2.04-12.18 4.51-18.45 5.99-4.85 1.15-7.66 3.71-9.64 8.07-11.64 25.67-16.05 52.35-12.71 80.47 3.78 31.84 16.08 59.31 39.09 81.93 10.36 10.19 10.12 31.63 0.22 42.26-8.28 8.89-19.04 12.02-30.57 13.05-16.85 1.5-32.92-2.96-49.05-6.88-6.91-1.68-13.91-2.96-20.87-4.42-4.68-6.16-4.57-6.78 1.3-7.68 10.08 1.96 20.11 4.19 30.24 5.8 11.19 1.78 22.45 3.82 33.73 4.14 5.97 0.17 12.54-2.1 17.97-4.94 15.3-8.03 18.79-26.99 6.89-39.59-26.59-28.15-38.16-61.98-39.48-99.93-0.93-26.85 5.42-52.22 16.37-76.57 1.2-2.68 2.24-5.43 3.35-8.15l-0.15 0.09c0.3-0.41 0.61-0.81 0.93-1.21z"/> <path class="st14" d="m811.94 1102.2c-4.79-3.2-9.25-7.13-14.42-9.47-12.41-5.62-25.15-10.49-37.75-15.67 3.36-2.11 6.72-4.22 10.09-6.34 12.12 4.77 24.47 9.03 36.29 14.43 14.65 6.69 23.72 18.3 27.21 34.24 4.16 19.02 3.71 38.06 0.55 57.08-1.55 9.31-3.95 18.47-5.97 27.7-1.71 4.86-3.42 9.72-5.13 14.58l0.08-0.04c-2.53 5.94-5.05 11.87-7.58 17.81-0.83 1.7-1.67 3.39-2.5 5.09-5.35 9-9.87 18.64-16.22 26.87-11.74 15.2-24.55 29.57-36.91 44.28-1.6-2.93 6.19-7.49-2.09-9.45-1.04 1.5-1.88 3.57-3.41 4.68-1.65 1.19-3.95 1.49-5.97 2.17 12.77-15.05 26.58-29.34 38.09-45.29 24.31-33.69 38.13-71.56 40.08-113.31 0.61-13.08-0.1-26.22-5.62-38.41-1.63-3.59-4.94-6.42-7.48-9.6-0.45-0.44-0.89-0.89-1.34-1.35z"/> <path class="st18" d="m827.94 1204.2c2.02-9.23 4.42-18.39 5.97-27.7 3.16-19.02 3.62-38.07-0.55-57.08-3.49-15.94-12.56-27.55-27.21-34.24-11.83-5.4-24.18-9.66-36.29-14.43-1.17-0.46-2.34-0.91-3.51-1.37-1.77-0.76-3.54-1.52-5.3-2.27-2.48-1.03-4.97-2.06-7.45-3.09-1.26-0.5-2.52-1-3.78-1.5-0.15-0.26-0.23-0.54-0.25-0.84 0.03-5.44 0.06-10.88 0.09-16.32 0.42 0.93 1.32 1.93 1.18 2.77-0.99 6.06 2.16 8.47 7.5 10.21 11.57 3.78 23.13 7.71 34.35 12.41 10.41 4.36 21.37 8.43 30.3 15.05 15.12 11.21 20.39 28.27 21.67 46.47 1.75 25.09-2.75 49.42-10.55 73.11-2.72 8.26-7.14 15.96-10.78 23.92-0.14-3.51-0.28-7.02-0.41-10.53 0 0-0.08 0.04-0.07 0.04 5.84-3.42 5.71-8.93 5.09-14.61z"/> <path class="st19" d="m721.86 1037.7c-1.91-3.73-4.1-7.35-5.69-11.22-3.96-9.68 0.05-18.14 10.12-21.09 3.58-1.05 7.45-1.1 11.18-1.61 2.9-0.4 5.96-0.37 8.67-1.32 6.13-2.14 7.45-7.6 3.05-12.3-2.28-2.44-5.11-4.36-7.61-6.6-5.41-4.87-7.82-10.54-5.72-18.01 2.27-8.09 8.02-11.26 15.57-12.61 3.71-0.67 7.52-1.25 10.98-2.63 5.93-2.37 5.87-5.93 1.78-10.61-4.49-5.12-7.9-11.19-11.67-16.91-0.16-0.25 0.81-1.24 1.25-1.89 4.24 4.89 8.28 9.98 12.76 14.64 7.42 7.71 5.89 15.29-4.25 18.75-3.55 1.21-7.38 1.61-11.08 2.4-6.21 1.33-10.96 4.55-12.6 10.94-1.59 6.19 1.99 10.4 6.32 14.12 2.23 1.92 4.58 3.74 6.62 5.85 6.39 6.61 3.59 16.52-5.42 18.51-4.48 0.99-9.18 1-13.79 1.41-13.03 1.16-17.56 9.48-11.41 21.02 6.92 12.99 6.92 12.99 6.31 18.46h-8c2.38-2.68 7.85-4.47 2.63-9.3z"/> <path class="st19" d="m749.65 1045.4c-0.03 5.44-0.06 10.88-0.09 16.32-1.02-0.09-2.05-0.19-3.45-0.31 4.33-9.05 1.7-16.23-5.23-22.28-4.13-3.6-6.4-8.05-4.87-13.46 1.6-5.66 6.58-7.31 11.74-8.15 3.74-0.6 7.53-1.1 11.3-1.18 5.45-0.11 10.99-1.32 12.13-6.92 0.96-4.71-0.16-10.2-1.69-14.91-0.94-2.88-4.47-4.87-6.71-7.37-1.95-2.17-4.16-4.28-5.5-6.81-2.93-5.51-1.12-10.03 4.81-11.95 3.15-1.02 6.6-1.2 9.94-1.58 16.06-1.83 22.73-15.83 13.94-29.46-1.25-1.94-3.16-3.51-4.15-5.55-0.91-1.87-0.98-4.15-1.41-6.25 2.24-0.19 4.48-0.38 6.73-0.57-5.87 0.89-5.98 1.52-1.29 7.68 5.5 6.1 7.12 13.43 6.75 21.39-3.81 4.51-6.93 10.05-11.64 13.22-3.82 2.58-9.52 2.55-14.44 3.27-6.51 0.95-8.31 4-5.58 10.21 1.89 1.9 4.11 3.58 5.6 5.76 3.18 4.67 5.97 9.61 8.92 14.43-0.1 0.83-0.25 1.66-0.28 2.49-0.44 11.13-2.82 13.91-13.64 15.59-5.35 0.83-10.73 1.47-16.09 2.29-4.35 0.67-7.1 2.56-5.21 7.58 1.13 2.61 2.01 5.37 3.44 7.81 1.74 3.05 3.95 5.82 5.97 8.71z"/> <path class="st7" d="m721.86 1037.7c5.23 4.83-0.24 6.63-2.64 9.29-1.27 0.71-2.55 1.43-3.82 2.14-1.26-1.12-2.53-2.24-3.79-3.36-1.2-0.58-2.39-1.16-3.59-1.74-1.34-0.75-2.67-1.51-4.01-2.26-0.17-0.34-0.44-0.46-0.8-0.36-1.41-0.81-2.83-1.62-4.24-2.43-1.31-0.81-2.62-1.63-3.93-2.44-0.79-0.5-1.58-0.99-2.37-1.49-0.63-0.42-1.26-0.83-1.89-1.25-0.69-0.48-1.39-0.96-2.08-1.43-1.63-1.16-3.26-2.32-4.89-3.49-1.67-1.38-3.33-2.76-5-4.14-0.42-0.32-0.83-0.65-1.25-0.97-0.46-0.43-0.93-0.85-1.39-1.28-1.31-1.23-2.62-2.46-3.92-3.69-1.23-1.28-2.45-2.57-3.68-3.85l-0.01-0.01c-0.4-0.48-0.79-0.95-1.19-1.43l0.1 0.11c-0.44-0.56-0.87-1.12-1.31-1.67-0.84-1.13-1.69-2.26-2.53-3.38-0.17-0.72-0.34-1.45-0.51-2.17l0.16-0.14c0.91 0.38 2.11 0.52 2.7 1.19 14.04 16.11 33.48 23.63 51.86 32.87 3.08 1.55 4.26 0.7 4.02-2.62z"/> <path class="st7" d="m682.31 924.7c-2.03 2.77-3.88 5.7-6.13 8.28-15.36 17.61-20.7 37.92-16.45 60.78 0.79 4.23 2.33 8.33 3.53 12.49l-0.16 0.14c-2.38-4.38-4.76-8.75-7.13-13.13l0.05 0.05-2.58-13.2c0-2.97 0-5.94 0.01-8.92 0.68-3.58 1.36-7.16 2.03-10.74 0.14-0.79 0.29-1.59 0.43-2.38 0.68-1.74 1.37-3.48 2.06-5.22 0.2-0.63 0.4-1.26 0.59-1.89 0.91-1.8 1.83-3.59 2.74-5.38l-0.04-0.02c5.06-5.91 10.13-11.82 15.19-17.72l-0.35-0.1 0.34 0.13c1.96-1.06 3.91-2.12 5.87-3.17z"/> <path class="st14" d="m645.56 990.06c-2.91-9.88-2.82-19.77-0.04-29.66 0.86 0.94 2.51 1.94 2.45 2.81-0.64 8.96-1.56 17.9-2.41 26.85z"/> <path class="st14" d="m716.68 904.94c9.88 0.71 19.77 1.43 29.65 2.14-8.18 0.05-16.37 0.22-24.55 0.03-1.72-0.04-3.4-1.41-5.1-2.17z"/> <path class="st14" d="m676.45 927.83c-5.06 5.91-10.13 11.82-15.19 17.72-0.08-7.94 8.32-17.74 15.19-17.72z"/> <path class="st14" d="m752.64 918.56c-8.64-1.23-17.28-2.47-25.92-3.7 6.33-0.01 12.69-0.36 18.98 0.14 2.39 0.19 4.63 2.32 6.94 3.56z"/> <path class="st14" d="m648.4 950.32c2.44-4.75 4.88-9.5 7.33-14.24 1.23 6.63-1.29 11.34-7.33 14.24z"/> <path class="st14" d="m655.97 993.26c2.38 4.38 4.76 8.75 7.13 13.13 0.17 0.72 0.34 1.45 0.51 2.17-1.74-0.82-3.48-1.64-5.22-2.46l-0.02-0.02c-0.8-4.28-1.6-8.55-2.4-12.82z"/> <path class="st14" d="m686.5 921.75c1.73-1.98 3.2-4.36 5.32-5.75 0.83-0.55 3.11 1.11 4.74 1.76-1.35 0.71-2.7 1.41-4.04 2.11l0.09-0.04c-2.05 0.64-4.08 1.28-6.11 1.92z"/> <path class="st14" d="m655.68 1014.2c-1.31-2.23-2.62-4.46-3.93-6.69 2.21-0.46 4.41-0.92 6.62-1.38l0.02 0.02c-0.91 2.68-1.81 5.36-2.71 8.05z"/> <path class="st14" d="m663.39 1023.9c-2.11-2.54-4.22-5.09-6.34-7.63 2.7-3.33 3.75 0.21 4.52 1.49 1.08 1.76 1.26 4.07 1.82 6.14z"/> <path class="st14" d="m681.25 1038.9c-3.31-2.52-6.63-5.04-9.94-7.56 4.43 1.06 9.31 1.51 9.94 7.56z"/> <path class="st14" d="m677.23 915.71c2.17-1.13 4.33-2.27 6.5-3.4 0.07 5.4-1.97 6.78-6.5 3.4z"/> <path class="st14" d="m660.68 929.84c2.56-2.61 5.12-5.21 7.68-7.82-2.56 2.61-5.12 5.22-7.68 7.82z"/> <path class="st14" d="m653.43 980.1 2.58 13.2c-0.9-1.93-2.23-3.78-2.6-5.8-0.42-2.39-0.02-4.93 0.02-7.4z"/> <path class="st14" d="m699.82 907.08c3.93-0.64 7.86-1.27 11.79-1.91-3.93 0.64-7.86 1.27-11.79 1.91z"/> <path class="st14" d="m682.31 924.7c-1.96 1.05-3.91 2.11-5.87 3.16 0.64-5.27 4.43-5.6 8.54-5.44-0.16 0.34-0.27 0.69-0.33 1.06l0.28-0.07c-0.87 0.49-1.74 0.98-2.6 1.48-0.01 0-0.02-0.19-0.02-0.19z"/> <path class="st14" d="m716.74 914.84c-4.23 0.41-8.47 0.82-12.7 1.24 4.23-0.41 8.46-0.82 12.7-1.24z"/> <path class="st14" d="m713.11 1054.4c-0.5 6.11-3.23 2.2-5.32 1.19 1.78-0.4 3.55-0.8 5.32-1.19z"/> <path class="st14" d="m655.48 960.45c-0.68 3.58-1.36 7.16-2.03 10.74 0.67-3.58 1.35-7.16 2.03-10.74z"/> <path class="st7" d="m684.65 923.48c0.06-0.37 0.17-0.72 0.33-1.06 0.51-0.22 1.01-0.45 1.52-0.67 2.03-0.64 4.07-1.28 6.1-1.93l-7.95 3.66z"/> <path class="st14" d="m678.8 1024.7c1.67 1.38 3.33 2.76 5 4.14-2.96 0.18-5.7 0.1-5-4.14z"/> <path class="st14" d="m725 1062.2c1.22 0.07 2.43 0.13 3.65 0.2-0.02 0.49-0.05 0.97-0.07 1.46-1.22-0.06-2.44-0.11-3.66-0.17 0.02-0.5 0.05-1 0.08-1.49z"/> <path class="st14" d="m652.62 996.6v3.65h-1.16v-3.65h1.16z"/> <path class="st14" d="m745.84 1071.4c-1.68-0.71-3.35-1.43-5.03-2.14 1.68 0.71 3.35 1.43 5.03 2.14z"/> <path class="st14" d="m711.6 1045.8c1.26 1.12 2.53 2.24 3.79 3.36-1.26-1.13-2.53-2.24-3.79-3.36z"/> <path class="st14" d="m686.28 1042.4-4.92-3.45 4.92 3.45z"/> <path class="st7" d="m692.51 919.87c1.35-0.7 2.69-1.41 4.04-2.11 0.74 0.01 1.48 0.02 2.22 0.03-2.09 0.69-4.18 1.38-6.26 2.08z"/> <path class="st14" d="m750.9 907.64c1.7 0.69 3.39 1.38 5.09 2.07-1.7-0.68-3.39-1.37-5.09-2.07z"/> <path class="st14" d="m741.13 910.84c-1.18 0.62-1.77 1.14-2.41 1.2-0.4 0.04-1.27-0.79-1.21-0.95 0.25-0.66 0.7-1.6 1.23-1.71 0.5-0.11 1.19 0.68 2.39 1.46z"/> <path class="st14" d="m690.75 909.58c1.89-0.69 3.77-1.37 5.66-2.06-1.89 0.69-3.77 1.38-5.66 2.06z"/> <path class="st14" d="m668.55 1014.9c1.23 1.28 2.45 2.57 3.68 3.85-1.23-1.28-2.45-2.57-3.68-3.85z"/> <path class="st14" d="m761.04 1067.1c1.77 0.76 3.54 1.52 5.3 2.27-1.76-0.76-3.53-1.52-5.3-2.27z"/> <path class="st14" d="m661.3 945.57c-0.91 1.79-1.83 3.59-2.74 5.38 0.91-1.79 1.82-3.58 2.74-5.38z"/> <path class="st14" d="m749.81 1062.5c1.26 0.5 2.52 1 3.78 1.5-1.26-0.5-2.52-1-3.78-1.5z"/> <path class="st14" d="m657.96 952.84c-0.69 1.74-1.37 3.48-2.06 5.22 0.69-1.74 1.38-3.48 2.06-5.22z"/> <path class="st14" d="m698.96 1039c1.41 0.81 2.83 1.62 4.24 2.43-1.41-0.81-2.82-1.62-4.24-2.43z"/> <path class="st14" d="m648.12 998.8c-0.64-1.74-1.29-3.48-1.93-5.23 0.65 1.74 1.29 3.48 1.93 5.23z"/> <path class="st14" d="m704.01 1041.8c1.34 0.75 2.67 1.51 4.01 2.26-1.34-0.75-2.68-1.5-4.01-2.26z"/> <path class="st14" d="m658.36 932.57c0.79-0.92 1.58-1.83 2.36-2.75-0.78 0.92-1.57 1.84-2.36 2.75z"/> <path class="st14" d="m646.8 955.34c0.45-1.34 0.89-2.67 1.34-4.01-0.45 1.34-0.9 2.67-1.34 4.01z"/> <path class="st14" d="m696.41 1048.6c-0.97-0.62-1.94-1.25-2.91-1.87 0.97 0.62 1.94 1.24 2.91 1.87z"/> <path class="st14" d="m750.71 1073.4c-0.9-0.41-1.8-0.82-2.69-1.24 0.89 0.41 1.79 0.83 2.69 1.24z"/> <path class="st14" d="m757.14 1076.2c-1.23-0.54-2.47-1.09-3.7-1.63 1.23 0.55 2.46 1.09 3.7 1.63z"/> <path class="st14" d="m665.92 1026.4c-0.85-0.85-1.69-1.7-2.54-2.55 0.85 0.85 1.7 1.7 2.54 2.55z"/> <path class="st14" d="m668.51 1028.9c-0.86-0.82-1.73-1.64-2.59-2.47 0.87 0.83 1.73 1.65 2.59 2.47z"/> <path class="st14" d="m671.14 1031.2c-0.87-0.76-1.74-1.53-2.62-2.29 0.88 0.76 1.75 1.52 2.62 2.29z"/> <path class="st14" d="m716.69 1063.1c-0.42-0.86-0.83-1.71-1.25-2.57 0.41 0.86 0.83 1.72 1.25 2.57z"/> <path class="st14" d="m692.66 1035c0.79 0.5 1.58 0.99 2.37 1.49-0.79-0.5-1.58-1-2.37-1.49z"/> <path class="st14" d="m674.9 917.35 1.17-0.96c-0.38 0.32-0.78 0.64-1.17 0.96z"/> <path class="st14" d="m692.55 1046.4-1.32-0.96c0.45 0.32 0.89 0.64 1.32 0.96z"/> <path class="st14" d="m650.65 1005.2c-0.26-0.52-0.53-1.05-0.79-1.57 0.27 0.52 0.53 1.04 0.79 1.57z"/> <path class="st14" d="m676.15 1022.5c0.46 0.43 0.93 0.85 1.39 1.28-0.46-0.43-0.92-0.85-1.39-1.28z"/> <path class="st14" d="m698.84 1049.9c-0.39-0.25-0.78-0.51-1.17-0.76 0.39 0.25 0.78 0.5 1.17 0.76z"/> <path class="st14" d="m666.14 1011.9c0.44 0.56 0.87 1.12 1.31 1.67-0.44-0.56-0.88-1.12-1.31-1.67z"/> <path class="st14" d="m656.39 934.97c0.61-0.65 1.22-1.3 1.83-1.95-0.61 0.65-1.22 1.3-1.83 1.95z"/> <path class="st14" d="m688.69 1032.4c0.69 0.48 1.39 0.95 2.08 1.43-0.69-0.48-1.39-0.95-2.08-1.43z"/> <path class="st14" d="m667.35 1013.5c0.4 0.48 0.8 0.95 1.19 1.43-0.4-0.48-0.8-0.95-1.19-1.43z"/> <path class="st20" d="m1230.8 1496.4c-20.57 2.87-40.73 1.06-59.01-8.96-12.28-6.73-23.42-15.62-34.75-23.97-5.29-3.9-9.39-9.45-16.15-11.25 4.55-0.05 9.13 0.2 13.64-0.22 5.15-0.48 10.24-1.55 15.35-2.36-2.63 1.65-5.26 3.3-8.29 5.2 13.74 12.02 27.68 22.41 44.65 28.04 25.54 8.47 50.03 4.38 73.8-6.46 25.76-11.75 46.41-29.26 58.37-55.42 13.34-29.19 4.99-53.99-22.68-70.04-6.37-3.69-12.6-7.63-18.9-11.45 3.18-1.58 7.23-2.18 7.73-6.81 8.97 5.48 18.53 10.21 26.81 16.6 22.22 17.16 28.98 45.24 17.9 71.68-14.45 34.48-41.38 55.52-75.09 69.15-0.96 0.39-1.9 0.85-2.84 1.28-0.87 0.38-1.74 0.76-2.61 1.13 0 0-0.03-0.05-0.03-0.05-4.58 1.01-9.15 2.02-13.73 3.03-1.39 0.29-2.78 0.59-4.17 0.88z"/> <path class="st20" d="m1260.4 1067.9c-16.68 6.83-33.38 13.64-50.04 20.52-2.45 1.01-4.76 2.38-7.14 3.58l0.01 0.01c-1.34 0.7-2.68 1.4-4.03 2.1 0 0-0.14-0.03-0.14-0.02-1.16 0.6-2.32 1.19-3.48 1.78v-0.07c-0.96 0.62-1.92 1.25-2.87 1.87 0 0-0.19 0.16-0.18 0.17-1.03 0.67-2.07 1.33-3.1 2-8.4 6.08-12.01 14.94-13.99 24.61-6 29.29-0.43 57.46 9.09 85.05 13.17 38.2 35.54 70.53 64.37 98.58 1 0.98 1.68 2.28 2.51 3.44-2.98-1.17-5.96-2.35-10.36-4.08 1.01 2.82 1.63 4.56 2.37 6.63-1.52 0.3-3.73 0.75-5.95 1.2 0.81-0.59 1.62-1.19 2.25-1.65-48.89-52.22-81.9-110.86-75.35-185.6 0.27-0.56 0.69-1.1 0.78-1.69 3.22-21.91 15.05-36.89 35.77-44.89 8.6-3.32 17.09-6.94 25.63-10.42 0.36-0.49 0.71-0.99 1.07-1.48l-0.12 0.03c1.93-0.38 3.94-0.54 5.77-1.18 6.56-2.29 13.06-4.74 19.58-7.12 2.1 1.08 4.2 2.16 6.29 3.25 0.42 1.11 0.84 2.25 1.26 3.38z"/> <path class="st21" d="m1237.5 1315.3c2.22-0.45 4.43-0.89 5.95-1.2-0.74-2.07-1.36-3.81-2.37-6.63 4.4 1.73 7.38 2.91 10.36 4.08 13.59 3.12 21.72 14.77 33.19 21.2-0.5 4.62-4.55 5.22-7.73 6.81-4.1-2.18-8.19-4.36-12.29-6.54-5.16-2.26-10.12-1.47-13.89 2.4-3.68 3.78 0.22 7.36 1.53 10.92 0.22 0.59 0.5 1.15 0.74 1.74 3.99 9.62 3.01 18.25-2.65 23.46-5.12 4.72-12.86 4.51-22.32-0.62-0.35-0.19-0.6-0.56-0.9-0.84 2.99-1.71 7.12-2.75 8.68-5.33 1.74-2.86 1.14-7.14 1.55-10.81 0.17-0.49 0.33-0.99 0.5-1.48 3.66-6.67 3.09-10.12-2.58-15.74-0.88-5.29-1.75-10.58-2.63-15.87 1.63-1.85 3.24-3.7 4.86-5.55z"/> <path class="st7" d="m1199.2 1094.1c1.34-0.7 2.68-1.4 4.03-2.1-1.35 0.71-2.69 1.4-4.03 2.1z"/> <path class="st7" d="m1192.7 1097.7c0.96-0.62 1.92-1.25 2.87-1.87-0.95 0.62-1.91 1.24-2.87 1.87z"/> <path class="st7" d="m1248.8 1492.6c0.87-0.38 1.74-0.76 2.61-1.13 0.51 0.21 1.02 0.41 2.81 1.13h-5.42z"/> <path class="st7" d="m1189.4 1099.9c1.04-0.66 2.07-1.33 3.1-2-1.04 0.67-2.07 1.34-3.1 2z"/> <path class="st7" d="m1195.6 1095.9c1.16-0.59 2.32-1.18 3.48-1.78-1.16 0.59-2.32 1.19-3.48 1.78z"/> <path class="st18" d="m887.82 712.13c-0.77-1.67-2.33-3.42-2.17-4.99 0.56-5.45-2.89-6.84-6.97-7.93 0.08-0.37 0.15-0.75 0.21-1.12 0.42-0.38 0.84-0.75 1.26-1.13 9.55-1.92 19.06-3.99 28.65-5.71 11.73-2.1 23.47-5.05 35.3-5.61 25.06-1.18 50.18-1.54 75.26-1.23 10.15 0.12 20.27 2.86 30.4 4.39 6.21 0.94 12.49 1.53 18.62 2.84 18.75 4 37.73 7.15 55.5 14.91 5.86 2.56 12 4.46 18.01 6.66 3.66 8.06 7.32 16.12 10.99 24.18-3.83-2.17-7.55-4.53-11.49-6.47-20.48-10.07-42.22-16.11-64.48-20.92-26.98-5.82-54.17-9.02-81.71-9.3-11.97-0.12-23.97 0.33-35.9 1.26-13.35 1.04-26.67 2.63-39.93 4.5-10.59 1.5-21.05 3.76-31.55 5.67z"/> <path class="st20" d="m1152.9 737.4c-3.66-8.06-7.32-16.12-10.99-24.18 4.82 1.84 9.64 3.67 14.46 5.51 1.17 2.47 2.35 4.95 3.52 7.42 15.11 35.95 16.91 72.56 5.58 109.86-6.67 21.95-18.04 41.2-33.54 57.97-4.64 5.03-6.96 10.37-6 17.12-0.77 1.09-1.54 2.19-2.35 3.34-1.75-2.52-3.29-4.73-4.83-6.94-0.41 0.19-0.82 0.39-1.23 0.58-0.11 2.26-0.22 4.52-0.32 6.78-3.71-8.16-2.07-15.66 3.18-22.44 3.99-5.16 8.66-9.8 12.62-14.98 20.47-26.81 29.83-57.39 29.49-90.86-0.14-16.85-2.61-33.52-9.59-49.18z"/> <path class="st22" d="m1138.6 534.9c0.67 0.37 1.33 0.74 2 1.11 15.11 19.35 27.26 40.25 31.32 64.81 1.77 10.73 1.8 21.75 2.62 32.64-3.83-1.86-7.67-3.72-11.5-5.57-0.95-9.14-0.89-18.53-3.07-27.36-4.61-18.62-12.46-35.93-24.86-50.88-0.62-1.54-1.23-3.08-1.85-4.62 1.77-3.38 3.56-6.76 5.34-10.13z"/> <path class="st12" d="m1135.2 549.65c12.4 14.95 20.25 32.26 24.86 50.88 2.19 8.83 2.12 18.22 3.07 27.36-4.31-1.88-8.61-3.77-12.92-5.65 0.15-1.36 0.61-2.76 0.41-4.07-3.03-20.2-11.66-38.18-22.14-55.41 2.24-4.37 4.48-8.74 6.72-13.11z"/> <path class="st22" d="m1128.4 562.76c10.48 17.23 19.11 35.21 22.14 55.41 0.2 1.31-0.26 2.71-0.41 4.07-4.31-2.13-8.62-4.25-12.93-6.38-1.73-15.03-7.95-28.27-16.2-40.7-0.4-0.85-0.8-1.69-1.2-2.54 2.53-3.4 5.05-6.8 7.58-10.2 0.33 0.11 0.68 0.22 1.02 0.34z"/> <path class="st12" d="m1121 575.16c8.26 12.43 14.47 25.67 16.2 40.7-4.98-1.19-9.95-2.38-14.93-3.57-0.43-2.14-0.45-4.47-1.36-6.37-3.29-6.82-6.88-13.49-10.36-20.22 3.49-3.52 6.97-7.03 10.45-10.54z"/> <path class="st22" d="m1110.6 585.7c3.48 6.73 7.07 13.4 10.36 20.22 0.92 1.9 0.93 4.24 1.36 6.37-4.94-1.58-9.88-3.17-14.82-4.75-2.61-4.9-5.22-9.8-7.83-14.71 2.93-3.42 5.86-6.83 8.78-10.25 0.72 1.04 1.43 2.08 2.15 3.12z"/> <path class="st15" d="m1099.6 592.83c2.61 4.9 5.22 9.81 7.83 14.71-6.12-1.5-12.24-3-18.37-4.5-0.41-0.76-0.81-1.52-1.22-2.29l10.44-7.98c0.45 0.02 0.88 0.04 1.32 0.06z"/> <path class="st7" d="m1159.9 726.16c-1.17-2.47-2.35-4.95-3.52-7.42 4.74-3.33 7.14-0.73 8.89 3.51-1.79 1.3-3.58 2.6-5.37 3.91z"/> <path class="st17" d="m880.15 696.97c-0.42 0.38-0.84 0.75-1.26 1.13 0.42-0.38 0.84-0.75 1.26-1.13z"/> <path class="st2" d="m856.98 704.57c-0.32 0.4-0.63 0.8-0.95 1.2 0.32-0.4 0.63-0.8 0.95-1.2z"/> <path class="st20" d="m1104.5 1429.6c-8.6-10.01-17.52-19.77-25.74-30.09-14.98-18.82-29.23-38.23-44.46-56.84-5.66-6.92-12.68-13.02-19.99-18.2-9.58-6.79-20.44-6.41-29.52 0.77-9.03 7.14-17.68 15.15-24.95 24.04-19.75 24.18-38.26 49.38-58.23 73.38-5.12 6.16-5.45 13.77-9.99 19.65 0.26-7.14 4.53-14.38-0.51-21.39 23.02-29.08 45.83-58.32 69.21-87.1 5.23-6.45 11.98-11.94 18.83-16.74 14.76-10.34 29.65-9.9 43.84 1.13 6.28 4.88 12.35 10.38 17.34 16.54 23.31 28.83 46.2 57.99 69.24 87.03 1.75 2.94 3.5 5.89 5.25 8.83l-3 2.37c-0.83-1.63-1.28-3.91-2.61-4.67-0.96-0.58-3.08 0.79-4.71 1.29z"/> <path class="st21" d="m891.15 1420.9c5.04 7.01 0.77 14.25 0.51 21.39-1.18 1.76-2.36 3.51-3.54 5.27-0.63 0.61-1.25 1.23-1.88 1.84-2.6 1.03-5.21 2.06-7.82 3.08-5.41 0.06-10.82 0.12-16.22 0.19-6.58 0.92-11.94-1.24-15.72-6.69-4.24-6.1-4.15-12.8-2.16-19.64 1.32-1.45 3.06-2.7 3.87-4.4 1.33-2.81 2.07-5.91 2.67-7.72h6.36c0.1 3.11-0.31 6.34 0.45 9.28 0.68 2.61 2.65 4.88 4.05 7.31l5.88-3.84c5.96-3.52 10.78-10.1 19.16-7.12 0.99 0.58 1.98 1.15 2.96 1.73 0.48-0.23 0.95-0.46 1.43-0.68z"/> <path class="st22" d="m1104.5 1429.6c1.62-0.5 3.74-1.87 4.74-1.29 1.33 0.76 1.78 3.04 2.61 4.67l3-2.37c-1.75-2.94-3.5-5.89-5.25-8.83 5.87-0.73 11.74-1.46 17.61-2.18 2.62 2.87 5.24 5.74 7.86 8.61 3.37 4.72 5.08 0.66 7.17-1.36 3.62-2.25 7.17-4.45 6.65-9.66-0.4-3.98 1.42-5.98 5.62-5.22-0.14 0.74-0.28 1.48-0.43 2.23 0.23 1.66 0.47 3.33 0.7 4.99 2.77 10.22 4.03 20.27-3.21 29.39-0.55 0.38-1.1 0.77-1.65 1.15-5.12 0.81-10.21 1.88-15.35 2.36-4.52 0.42-9.09 0.17-13.64 0.22-10.02-4.28-15.07-12.16-16.43-22.71z"/> <path class="st4" d="m1230.8 1496.4c1.39-0.29 2.78-0.58 4.18-0.87-1.4 0.28-2.79 0.58-4.18 0.87z"/> <path class="st23" d="m857.22 1414.2h-6.36c-0.6 1.81-1.33 4.91-2.67 7.72-0.81 1.7-2.55 2.95-3.87 4.4 0.29-2.3 0.62-4.59 0.87-6.9 1.32-11.94-6.1-17.45-17.25-12.75-3.88 1.63-7.57 3.75-11.52 5.17-9.39 3.38-18.22-0.53-21.25-10.06-1.68-5.29-1.67-11.12-2.42-16.7 0.82 2.55 1.64 5.09 2.46 7.64 0.09 0.92 0.19 1.85 0.28 2.77 0.29-0.08 0.57-0.16 0.86-0.24-0.35-0.87-0.7-1.74-1.06-2.6-0.01-2.45 0.29-4.95-0.13-7.32-0.4-2.27-1.55-4.41-2.38-6.6-1.53-10.15-7.51-13.68-17.07-9.91-3.13 1.23-6.02 3.08-9.16 4.28-12.88 4.93-23.42-3.38-21.36-17.06 0.65-4.3 2.66-8.4 4.04-12.59 1.93-5.88 0.55-8.4-5.79-10.68l-0.02 0.21c-2.58 0.02-5.17 0.05-7.75 0.07-13.68 8.23-27.97 15.62-40.9 24.9-16.73 12.01-21.74 29.43-17.85 49.36 3.61 18.51 14.25 33.04 27.07 46.23-0.51 3.87-1.01 7.74-1.52 11.61-16.51-14.21-28.89-31.15-34.84-52.41-7.15-25.53 2.29-51.11 24.42-65.91 15.24-10.19 30.44-20.46 45.74-30.56 2.89-1.91 6.19-3.18 9.3-4.74 0.01-0.32 0.01-0.65 0.01-0.97 0.29-0.33 0.66-0.46 1.09-0.37 2.02-0.69 4.32-0.98 5.97-2.17 1.53-1.11 2.37-3.17 3.41-4.68 8.28 1.96 0.49 6.52 2.09 9.45 1.71 1.72 3.43 3.43 5.14 5.15 0.25 4.1 1.24 8.32 0.55 12.25-0.63 3.59-3.94 6.74-4.45 10.31-0.58 4.02-0.72 9.39 1.49 12.13 1.95 2.42 7.45 2.95 11.26 2.65 4.73-0.37 9.32-2.45 13.98-3.78 6.98-1.99 12.28-0.23 15.24 6.37 1.72 3.84 2 8.47 2.25 12.79 0.29 4.81-0.8 9.74-0.2 14.48 1.14 9.05 7.78 13.02 16.48 10.23 4.4-1.41 8.55-3.56 12.89-5.16 13.1-4.84 24.21 3.23 23.57 17.06-0.11 2.33-0.42 4.63-0.64 6.93z"/> <path class="st20" d="m702.48 1465.1c0.51-3.87 1.01-7.74 1.52-11.61 12.35 10.58 25.35 20.14 40.82 25.75 43.36 15.73 75.66 9.26 111.25-23.53 2.04-1.04 4.09-2.07 6.13-3.11 5.41-0.06 10.82-0.12 16.22-0.19-5.76 0.63-8.91 5.07-12.81 8.55-17.28 15.4-35.82 28.85-58.86 34.24-28.58 6.68-55.11-0.13-80.33-13.51-7.02-3.72-13.44-8.59-20.14-12.93-1.26-1.22-2.53-2.44-3.8-3.66z"/> <path class="st3" d="m811.94 1102.2c0.44 0.45 0.89 0.9 1.33 1.36-0.5 0.04-1.01 0.09-1.51 0.13 0 0-0.1-0.12-0.09-0.12 0.03-0.37 0.04-0.75 0.03-1.12l0.24-0.25z"/> <path class="st14" d="m747.11 1310.6c0 0.32 0 0.65-0.01 0.97-0.31-0.19-0.63-0.37-0.94-0.56 0.32-0.13 0.63-0.27 0.95-0.41z"/> <path class="st13" d="m1241.3 909.36c28.64-6.88 56.86-8.5 83.73 6.71 3.39 2.95 6.78 5.9 10.18 8.85 0.82 0.86 1.65 1.72 2.47 2.58l0.03 0.03c0.78 0.85 1.57 1.7 2.35 2.55 2.61 3.76 5.21 7.53 7.82 11.29 0 2.9-0.4 5.88 0.14 8.69 0.41 2.14 0.8 6.19 4.86 2.81 0.29 0.2 0.36 0.46 0.2 0.78 0.42 1.41 0.83 2.82 1.25 4.22 0.42 2.41 0.84 4.83 1.26 7.24 0 6.22 0.01 12.44 0.01 18.66l-0.36 3.33c-0.72 2.68-1.44 5.37-2.16 8.05-1.03 2.79-2.05 5.58-3.08 8.38-0.72 1.26-1.44 2.52-2.17 3.78-0.15 0.43-0.29 0.86-0.44 1.29-0.66 0.94-1.32 1.89-1.97 2.83-1.16 1.68-2.31 3.35-3.47 5.03-0.51-1.22-1.74-3.24-1.41-3.55 5.26-4.83 1.79-10.66 2.07-16.02-0.08-0.37 0.02-0.68 0.3-0.93 0.52-0.14 1.05-0.28 1.57-0.42-0.38-0.29-0.77-0.58-1.15-0.88 0.22-0.42 0.45-0.84 0.67-1.26 0.41-1.33 0.81-2.66 1.22-3.99 0.14-0.79 0.28-1.59 0.41-2.38 0.19-0.74 0.38-1.48 0.57-2.21l0.42-2.82c0.22-6.28 0.38-12.57 0.67-18.84 0.19-4.17 1.53-8.73-4.35-10.3-0.3-0.26-0.4-0.58-0.29-0.96-0.25-3.15 1.69-7.42-3.99-7.77-0.41-0.71-0.81-1.42-1.22-2.13 0.62-1.28 1.24-2.56 2.14-4.4h-5.48c-0.55-0.68-1.1-1.36-1.65-2.03-0.89-0.95-1.78-1.89-2.68-2.84-11.38-10.1-24.61-15.91-39.8-17.19-15.05-1.68-29.83-0.08-44.44 3.62-1.4-3.29-2.82-6.55-4.23-9.8z"/> <path class="st21" d="m1260.4 1067.9c-0.42-1.14-0.84-2.27-1.26-3.41-0.09-11.65-2.17-24.03 11.42-30.57 0.41 0 0.82-0.01 1.23-0.01 0.67 1.35 1.33 2.69 2 4.04-3.64 8.21-3.49 8.65 3 8.47 2.08 0.48 4.15 1.14 6.26 1.37 0.86 0.09 1.83-0.76 2.75-1.18 4 5.6 8.97-1.78 12.69 0.38-0.56 1.73-0.99 3.05-1.42 4.38-0.24 0.32-0.55 0.45-0.94 0.39-2.7 0.29-6.64-1.67-6.61 3.62l-0.09 0.06c-0.36 0.31-0.73 0.61-1.09 0.92-1.17 0.76-2.78 1.25-3.45 2.33-5.86 9.34-14.04 12.21-24.49 9.21zm25.69-17.24c-0.56 0.52-1.16 0.82-1.25 1.23-0.1 0.48 0.25 1.05 0.4 1.58 0.53-0.35 1.23-0.59 1.52-1.08 0.17-0.27-0.35-0.95-0.67-1.73z"/> <path class="st20" d="m1297.1 1051.4c0.43-1.33 0.86-2.65 1.42-4.38-3.73-2.16-8.7 5.22-12.69-0.38 3.07-1.83 6.07-3.76 9.21-5.46 19.67-10.7 37.64-23.21 47.63-44.31-0.29 5.36 3.18 11.19-2.07 16.02-0.34 0.31 0.9 2.33 1.41 3.55-7.96 7.41-15.54 15.31-24.02 22.06-6.36 5.07-13.89 8.66-20.89 12.9z"/> <path class="st20" d="m1352.9 952.87c-4.06 3.38-4.46-0.67-4.86-2.81-0.53-2.8-0.13-5.78-0.14-8.69 1.66 3.84 3.33 7.67 5 11.5z"/> <path class="st20" d="m1355.6 983.77c0-6.22-0.01-12.44-0.01-18.66 0 6.22 0 12.44 0.01 18.66z"/> <path class="st20" d="m1289.5 1055.4c-0.03-5.29 3.9-3.32 6.61-3.62-2.21 1.21-4.41 2.41-6.61 3.62z"/> <path class="st20" d="m1353.1 995.15c0.72-2.68 1.44-5.37 2.16-8.05-0.72 2.68-1.44 5.37-2.16 8.05z"/> <path class="st20" d="m1347.9 1007.3c0.72-1.26 1.44-2.52 2.17-3.78-0.73 1.26-1.45 2.52-2.17 3.78z"/> <path class="st20" d="m1340.1 930.08c-0.78-0.85-1.57-1.7-2.35-2.55 0.78 0.85 1.56 1.7 2.35 2.55z"/> <path class="st20" d="m1354.4 957.87c-0.42-1.41-0.83-2.81-1.25-4.22 0.42 1.4 0.83 2.81 1.25 4.22z"/> <path class="st20" d="m1345.4 1011.4c0.66-0.94 1.32-1.89 1.97-2.83-0.65 0.94-1.31 1.88-1.97 2.83z"/> <path class="st20" d="m1337.7 927.5c-0.82-0.86-1.65-1.72-2.47-2.58 0.82 0.86 1.65 1.72 2.47 2.58z"/> <path class="st20" d="m1288.4 1056.4c0.36-0.31 0.73-0.61 1.09-0.92-0.36 0.31-0.72 0.61-1.09 0.92z"/> <path class="st1" d="m1117.2 914.86c0.11-2.26 0.22-4.52 0.32-6.78 0.41-0.19 0.82-0.39 1.23-0.58 1.54 2.21 3.08 4.43 4.83 6.94 0.81-1.16 1.58-2.25 2.35-3.34l1.47 3.63c0.14 0.91 0.28 1.81 0.42 2.72 0.37-0.28 0.74-0.55 1.11-0.83 0.31 0.3 0.63 0.61 0.94 0.91 0.97 0.73 1.95 1.46 2.92 2.19 1.14 0.52 2.28 1.03 3.42 1.55 0.21 1.16 0.42 2.32 0.62 3.49 0.64-0.85 1.29-1.69 1.93-2.54 8.03 0.05 16.05 0.1 24.08 0.15 0.41 0.14 0.83 0.29 1.24 0.43-3.76 2.62-7.51 5.25-11.27 7.87 0.32 0.68 0.64 1.36 0.97 2.05h9.31c-10.19-0.53-20.39-1.05-30.58-1.58-0.44-0.4-0.87-0.8-1.31-1.2-0.12-4.51-2.6-5.14-6.26-3.78-0.88-0.82-1.77-1.63-2.65-2.45-0.92-1.24-1.83-2.47-2.75-3.71-0.79-1.71-1.56-3.42-2.34-5.14zm28.88 16.83v0.46h1.86v-0.46h-1.86z"/> <path class="st20" d="m1138.7 922.22c-0.64 0.85-1.29 1.69-1.93 2.54-0.21-1.16-0.42-2.32-0.62-3.49 0.85 0.32 1.7 0.63 2.55 0.95z"/> <path class="st20" d="m1128.9 916.62c-0.37 0.28-0.74 0.55-1.11 0.83-0.14-0.91-0.28-1.81-0.42-2.72 0.51 0.63 1.02 1.26 1.53 1.89z"/> <path class="st20" d="m1132.8 919.73c-0.97-0.73-1.95-1.46-2.92-2.19 0.97 0.72 1.94 1.46 2.92 2.19z"/> <path class="st8" d="m1208.5 610.73c2.91 13.51 2.91 27.02 0.02 40.53-0.01-13.51-0.01-27.02-0.02-40.53z"/> <path class="st23" d="m1163.1 932.72h-9.31c-0.32-0.68-0.64-1.36-0.97-2.05 3.76-2.62 7.51-5.25 11.27-7.87 21.59-4.92 43.18-9.84 64.77-14.76 4.17 0.44 8.34 0.87 12.51 1.31 1.42 3.26 2.83 6.51 4.25 9.77 0.11 0.64 0.21 1.29 0.32 1.93-0.2 0.46-0.41 0.93-0.61 1.39-0.07 0.78-0.14 1.57-0.22 2.35-1.21 1.28-2.42 2.56-3.63 3.83-0.55 0.41-1.1 0.83-1.64 1.24l0.19-0.19c-0.46 0.5-0.92 1-1.39 1.5l-0.12-0.17c-0.84 0.61-1.75 1.16-2.52 1.85-3.94 3.58-8.19 7.37-6.6 13.31 1.63 6.09 7.02 7.82 12.65 8.82 3.5 0.62 7.1 1.15 10.37 2.45 10.3 4.12 12.45 15.09 4.6 22.8-1.94 1.91-4.21 3.48-6.29 5.24-7.91 6.7-7.69 13.83 0.61 20.24-5.52 0.54-11.1 0.8-16.54 1.8-1.44 0.27-2.45 2.83-3.66 4.34-4.92-6.77-4.52-13.11 1.5-19.79 2.81-3.12 6.14-5.78 8.86-8.97 5.85-6.82 4.3-12.75-4.15-15.28-3.97-1.19-8.27-1.27-12.41-1.92-11.38-1.77-17.36-12.22-12.86-22.95 1.69-4.03 4.04-7.83 6.45-11.51 1.82-2.78 2.08-4.93-0.92-6.86l-0.07 0.27c-1.95 0.01-3.9 0.02-5.86 0.03-10.65 1.77-21.31 3.54-31.96 5.31-3.5 0.65-6.99 1.31-10.49 1.96-2.04 0.21-4.09 0.4-6.13 0.58z"/> <path class="st8" d="m811.7 1102.5c0.01 0.37 0 0.75-0.03 1.12-0.15-0.27-0.32-0.53-0.42-0.82-0.01-0.04 0.29-0.19 0.45-0.3z"/> <path class="st12" d="m1137.3 532.13c0.21-0.18 0.42-0.35 0.63-0.53-0.18 0.21-0.36 0.42-0.54 0.62-0.01 0-0.09-0.09-0.09-0.09z"/> <path class="st7" d="m682.32 924.89c0.87-0.49 1.73-0.98 2.6-1.48-0.86 0.49-1.73 0.98-2.6 1.48z"/> <path class="st16" d="m1117.2 914.86c0.78 1.71 1.55 3.43 2.33 5.14 0.92 1.24 1.83 2.47 2.75 3.71 0.88 0.82 1.77 1.63 2.65 2.45 2.09 1.26 4.18 2.52 6.26 3.78 0.44 0.4 0.87 0.8 1.31 1.2 1.02 0.98 1.88 2.29 3.08 2.9 10.78 5.48 22.28 7.34 34.18 5.61 14.66-2.13 29.25-4.71 43.87-7.09-6.94 10.96-10.16 21.91 0.04 32.85 1.42 6.19 6.59 7.52 11.65 8.97 4.78 1.38 9.56 2.73 14.34 4.09-3 3.69-5.81 7.57-9.05 11.03-8.35 8.91-8.64 17.31-0.64 26.73 2.12 2.1 3.95 5.51 6.42 6.07 7.64 1.74 15.53 2.39 23.31 3.47-0.91 3.63-1.39 7.45-2.88 10.83-1.2 2.74-3.62 4.94-5.5 7.38-7.95 8.54-15.89 17.07-23.84 25.61l0.12-0.03c-0.36 0.49-0.71 0.99-1.07 1.48-8.54 3.48-17.03 7.1-25.63 10.42-20.72 8-32.55 22.98-35.77 44.89-0.09 0.59-0.51 1.12-0.78 1.68-0.38-0.08-0.75-0.18-1.13-0.2-0.09 0-0.26 0.27-0.29 0.44-3.47 16.87-3.67 33.9-1.11 50.8 4.56 30.1 14.64 58.49 31.12 84.04 11.35 17.6 24.89 33.78 37.29 50.71 1 1.36 0.78 3.61 1.13 5.45l-0.03-0.07-1.26 3.78-0.02 0.04c-0.19 2.15-0.73 4.34-0.52 6.45 0.78 7.84 1.81 15.66 2.74 23.48-0.74 0-1.48 0.01-2.21 0.01-1.3-0.27-2.59-0.54-3.89-0.8-4.43-1.31-8.8-2.91-13.3-3.86-12.73-2.67-21.9 4.81-22.14 17.97-0.1 5.26 0.3 10.54 0.29 15.81-0.02 9.63-5.58 13.07-14.73 9.22-2.72-1.14-5.37-2.45-8.08-3.59-16.29-6.88-30.88 2.86-30.48 20.47 0.1 4.61 1.31 9.23 1.09 13.8-0.1 2.12-2.42 4.13-3.74 6.19-2.62-2.87-5.24-5.74-7.86-8.61-0.84-1.6-1.43-3.41-2.56-4.76-16.98-20.35-33.95-40.71-51.09-60.92-13.47-15.89-26.35-32.45-44.5-43.56-11.85-7.26-24.92-9.86-38.26-6.83-14.09 3.2-25.86 11.43-35.27 22.31-12.66 14.63-24.55 29.92-37.02 44.72-10.3 12.22-20.63 24.46-31.6 36.07-5.37 5.69-12.23 9.97-19.21 15.52-0.58-4.64-0.58-8.26-1.58-11.59-1.09-3.61-3.1-6.93-4.72-10.38-6.53-16.21-20.94-17.36-32.6-11.62-4.47 2.2-10.02 2.2-15.07 3.2-0.26-6.84-0.04-13.74-0.96-20.49-0.49-3.61-2.94-6.95-4.5-10.42-4.04-11.5-10.55-15.16-22.27-12.38-2.86 0.68-5.66 1.64-8.48 2.48-9.65 0.13-10.2-0.57-8.21-10.44 0.04-0.2 0.2-0.41 0.18-0.6-0.67-6.92-1.35-13.84-2.03-20.76-0.09-0.35-0.2-0.68-0.34-1.01-1.6-4-0.08-6.74 2.71-9.9 8.9-10.06 17.75-20.23 25.76-31 6.48-8.71 11.7-18.35 17.49-27.57l10.14-20.37 0.07 0.03c3.64-7.96 8.06-15.66 10.78-23.92 7.8-23.69 12.31-48.02 10.55-73.11-1.27-18.19-6.55-35.26-21.67-46.47-8.93-6.62-19.89-10.69-30.3-15.05-11.22-4.7-22.78-8.63-34.35-12.41-5.33-1.74-8.49-4.15-7.5-10.21 0.14-0.84-0.76-1.84-1.18-2.77-2.02-2.89-4.23-5.66-6-8.7-1.42-2.44-2.31-5.19-3.43-7.81 4.33-1.25 8.62-2.67 12.99-3.71 4.44-1.05 9.1-1.27 13.43-2.63 9.49-2.98 13.16-12.42 8.8-21.62-2.95-4.83-5.74-9.76-8.92-14.43-1.48-2.18-3.71-3.85-5.6-5.76 1.98-5.98 7.14-4.82 11.57-5.01 13.22-0.58 22.66-10.69 20.09-21.69 0.38-7.96-1.24-15.28-6.75-21.39 6.96 1.46 13.96 2.74 20.87 4.42 16.13 3.92 32.2 8.38 49.05 6.88 11.53-1.02 22.29-4.16 30.57-13.05 9.9-10.63 10.15-32.08-0.22-42.26-23.02-22.62-35.31-50.1-39.09-81.93-3.34-28.12 1.07-54.8 12.71-80.47 1.98-4.36 4.78-6.92 9.64-8.07 6.27-1.49 12.31-3.95 18.45-5.99 10.5-1.91 20.96-4.17 31.53-5.66 13.26-1.87 26.59-3.46 39.93-4.5 11.93-0.93 23.94-1.39 35.9-1.26 27.53 0.29 54.72 3.48 81.71 9.3 22.27 4.81 44 10.85 64.48 20.92 3.94 1.94 7.67 4.3 11.49 6.47 6.98 15.66 9.45 32.32 9.62 49.19 0.34 33.47-9.02 64.05-29.49 90.86-3.96 5.18-8.63 9.82-12.62 14.98-5.21 6.78-6.85 14.28-3.14 22.43zm-141.95 275.05c0.42 0.4 0.84 0.81 1.25 1.21l0.04 0.04c5.07 12.3 23.58 23.83 36.44 22.7 23.4-2.05 38.97-19.87 36.91-43.17-0.86-9.74-4.58-18.62-13.79-23.93h-0.01l-0.96-1.29c-1.63-2.45-3.11-5.01-4.91-7.33-10.32-13.37-27.47-18.57-42.87-13.08-15.92 5.67-24.8 18.97-24.83 36.44-0.02 10.79 4.87 19.32 11.36 27.28 0.44 0.37 0.88 0.73 1.31 1.1l0.06 0.03zm2.42-121.65 0.06 0.05c0.28 1.21 0.18 2.74 0.89 3.57 8.34 9.73 18.41 16.92 31.54 17.74 16.74 1.05 33.89-11.83 38.48-28.03 3.95-13.93-1.93-31.72-12.8-38.72-1.41-2.09-2.8-4.2-4.24-6.28-12.69-18.33-36.5-22.45-53.92-10.02-17.4 12.41-22.28 42.44-1.22 60.52 0.4 0.38 0.8 0.78 1.21 1.17zm65.02-284.26c7.31 12.99 18.36 18.97 33.31 19.55 10.84 0.42 23.32-8.55 27.12-19.03 4.72-13.03 2.09-26.25-7.21-34.57-0.6-1.58-1.13-3.18-1.8-4.72-6.47-14.8-22.06-23.23-37.53-20.33-13.91 2.61-25.01 15.69-26 30.4-0.79 11.65 4.43 20.67 12.11 28.7zm-128.05 0.08c0 0.42-0.15 0.91 0.02 1.25 6.12 12 21.6 19.78 35.53 17.89 13.64-1.85 24.81-12.79 27.4-26.83 1.86-10.06-3.66-24.77-10.89-29.02-1.32-2.4-2.52-4.86-3.97-7.18-7.83-12.51-23.93-18.83-37.32-14.72-14.6 4.48-23.81 17.47-23.67 32.86 0.11 10.78 5.69 18.63 12.9 25.75zm21.37 87.63-0.01-0.01c8.27 6.38 16.12 13.43 24.91 18.99 21.01 13.31 43.92 17.46 68.33 11.81 24.62-5.69 45.53-18.38 64.45-34.64 5.75-4.94 9.04-11.22 7.06-19.01-1.74-6.85-4.04-13.55-6.1-20.32-0.58-7.34-4.95-11.67-11.7-13.18-6.83-1.53-10.8 2.84-14.29 8.12-8.56 12.94-18.5 24.59-31.7 33.19-12.92 8.42-26.86 13.44-42.37 12.02-23.12-2.12-40.41-14.61-54.45-32.25-4.2-5.27-7.74-11.07-12.07-16.22-5.39-6.41-11.94-6.9-18.52-2.02-4.8 3.56-6.67 11.2-3.93 17.9 4.75 11.62 13.17 20.42 22.6 28.36 0.38 0.35 0.76 0.71 1.14 1.06 0.22 0.28 0.39 0.59 0.5 0.92 0.85 0.84 1.71 1.68 2.56 2.53 0.33 0.06 0.65 0.17 0.95 0.32 0.89 0.81 1.76 1.62 2.64 2.43z"/> <path class="st7" d="m813.09 1249.6c-5.78 9.22-11.01 18.86-17.49 27.57-8.01 10.77-16.86 20.94-25.76 31-2.8 3.16-4.32 5.9-2.71 9.9-0.77-0.05-1.55-0.1-2.32-0.15-1.71-1.72-3.43-3.43-5.14-5.15 12.36-14.71 25.17-29.08 36.91-44.28 6.35-8.23 10.87-17.87 16.22-26.87l0.33 0.3c-0.01 2.57-0.02 5.12-0.04 7.68z"/> <path class="st7" d="m822.89 1218.7c0.14 3.51 0.28 7.02 0.41 10.53l-0.07-0.03c-2.53 2.54-5.05 5.08-7.58 7.62l-0.35-0.31c2.53-5.94 5.06-11.87 7.59-17.81z"/> <path class="st7" d="m827.94 1204.2c0.62 5.68 0.75 11.19-5.13 14.58 1.71-4.85 3.42-9.71 5.13-14.58z"/> <path class="st7" d="m812.8 1241.6c0.83-1.7 1.67-3.39 2.5-5.09l0.34 0.31c-0.84 1.69-1.68 3.39-2.52 5.08l-0.32-0.3z"/> <path class="st17" d="m792.58 953.99c2.57 11-6.87 21.12-20.09 21.69-4.43 0.19-9.59-0.97-11.57 5.01-2.73-6.21-0.93-9.26 5.58-10.21 4.92-0.72 10.62-0.69 14.44-3.27 4.71-3.17 7.83-8.7 11.64-13.22z"/> <path class="st24" d="m775.43 1000.9c4.36 9.2 0.69 18.65-8.8 21.62-4.32 1.36-8.99 1.58-13.43 2.63-4.38 1.03-8.66 2.46-12.99 3.71-1.9-5.02 0.85-6.92 5.2-7.58 5.35-0.82 10.74-1.46 16.09-2.29 10.82-1.69 13.2-4.46 13.64-15.59 0.04-0.84 0.19-1.67 0.29-2.5z"/> <path class="st18" d="m1149.9 1449.7c0.55-0.38 1.1-0.77 1.65-1.15 1.99-1.37 4.88-2.31 5.77-4.2 1.64-3.44 2.09-7.45 3.04-11.22 1.25 0.7 2.59 1.28 3.75 2.11 9.2 6.6 19.21 11.9 30.48 13.02 34.34 3.4 64.06-6.95 88.26-31.86 16.08-16.56 17.8-37.26 3.86-55.54-7.75-10.17-19.76-14.56-31.47-18.83h0.02c-0.43-0.64-0.86-1.29-1.3-1.93 0.07-7.53 5.89-6.45 10.58-7.06 4.1 2.18 8.19 4.36 12.29 6.54 6.29 3.82 12.53 7.76 18.9 11.45 27.68 16.04 36.02 40.85 22.68 70.04-11.95 26.16-32.61 43.67-58.37 55.42-23.77 10.84-48.26 14.93-73.8 6.46-16.97-5.63-30.91-16.03-44.65-28.04 3.05-1.91 5.68-3.56 8.31-5.21z"/> <path class="st17" d="m1231.4 1319.3c-0.35-1.84-0.13-4.09-1.13-5.45-12.4-16.93-25.94-33.11-37.29-50.71-16.48-25.55-26.56-53.94-31.12-84.04-2.56-16.9-2.36-33.94 1.11-50.8 0.03-0.17 0.2-0.44 0.29-0.44 0.38 0.02 0.76 0.13 1.13 0.2-6.55 74.74 26.46 133.38 75.35 185.6-0.63 0.46-1.44 1.06-2.25 1.65-1.61 1.85-3.23 3.7-4.84 5.55-0.42-0.51-0.84-1.04-1.25-1.56z"/> <path class="st14" d="m1270.6 1034c-13.59 6.53-11.51 18.92-11.42 30.57-2.1-1.08-4.2-2.16-6.29-3.24-0.39-3.18-0.78-6.35-1.18-9.53 2.61-4.6 5.32-9.14 7.79-13.81 1.97-3.73 3.65-7.61 5.46-11.43 4-1.76 8-3.51 12-5.27-1.7 3.8-3.4 7.61-5.1 11.41-0.54-0.63-1.07-1.26-1.61-1.9 0.12 1.06 0.23 2.13 0.35 3.2z"/> <path class="st17" d="m1251.7 1051.8c0.39 3.18 0.78 6.35 1.18 9.53-6.52 2.39-13.02 4.84-19.58 7.12-1.84 0.64-3.84 0.8-5.77 1.18 7.95-8.54 15.89-17.07 23.84-25.6 0.11 2.59 0.22 5.18 0.33 7.77z"/> <path class="st17" d="m1226.6 1071c0.36-0.49 0.71-0.99 1.07-1.48-0.36 0.49-0.72 0.98-1.07 1.48z"/> <path class="st23" d="m1154.5 1411.9c-4.2-0.76-6.02 1.24-5.62 5.22 0.52 5.21-3.03 7.41-6.65 9.66-0.31-6.72-0.78-13.44-0.89-20.16-0.21-12.21 9.11-19.81 20.89-16.91 4.27 1.05 8.38 2.8 12.46 4.5 12.33 5.14 20.55-0.27 20.34-13.64-0.08-5.06-0.88-10.12-0.87-15.18 0.03-10.3 7.83-16.4 17.76-13.98 4.3 1.05 8.41 3.21 12.73 3.66 4.14 0.43 8.44-0.72 12.66-1.17-0.42 3.66 0.18 7.94-1.55 10.81-1.57 2.58-5.69 3.61-8.68 5.33-3.21-0.85-6.4-2.35-9.63-2.43-6.93-0.17-9.75 4.14-10.5 14.81-1.58 1.05-4.04 1.78-4.58 3.22-2.31 6.2-4.05 12.6-6.08 19.2 1.49 0.72 2.98 1.43 4.47 2.15-5.54 5.94-12.15 7.02-19.46 4.01-4.06-1.68-7.87-3.94-11.93-5.62-7.12-2.96-11.82-0.8-14.87 6.52z"/> <path class="st19" d="m1207 1382.4c0.75-10.67 3.57-14.97 10.5-14.81 3.23 0.08 6.42 1.58 9.63 2.43 0.3 0.28 0.55 0.65 0.9 0.84 9.47 5.13 17.2 5.34 22.32 0.62 5.66-5.21 6.63-13.84 2.65-23.46-0.24-0.58-0.52-1.15-0.74-1.74-1.32-3.56-5.21-7.14-1.53-10.92 3.77-3.87 8.73-4.66 13.89-2.4-4.69 0.61-10.51-0.47-10.58 7.06 0.43 0.64 0.87 1.29 1.3 1.93h-0.02l2.73 11.34c0.26 1.32 0.53 2.64 0.79 3.96l-0.12 8.43c-0.51 0.35-1.25 0.59-1.5 1.07-5.68 11.21-12.84 14.04-24.6 9.53-3.52-1.35-6.87-3.11-10.36-4.55-6.8-2.81-11.02 0.08-11.5 7.24-0.46 6.84-1.13 13.72-2.37 20.45-2.04 11.13-14.94 20.67-27.66 14.76-4.56-2.12-8.99-4.69-13.76-6.1-2.27-0.67-6.62 0.03-7.57 1.61-2.58 4.24-3.45 9.25 0.58 13.62 0.01 0.68 0.03 1.37 0.04 2.05 0.06 1.36 0.13 2.72 0.19 4.08 0.07 1.2 0.15 2.4 0.22 3.6-0.95 3.77-1.4 7.78-3.04 11.22-0.9 1.89-3.78 2.83-5.77 4.2 7.24-9.12 5.98-19.17 3.21-29.39-0.23-1.66-0.47-3.33-0.7-4.99 0.14-0.74 0.28-1.48 0.43-2.23 3.05-7.32 7.75-9.48 14.87-6.54 4.06 1.68 7.87 3.94 11.93 5.62 7.31 3.02 13.92 1.93 19.46-4.01 6.83-6.94 6.42-15.76 6.18-24.52z"/> <path class="st19" d="m1237.3 1353.9c-4.23 0.45-8.53 1.6-12.66 1.17-4.32-0.45-8.44-2.61-12.73-3.66-9.93-2.42-17.73 3.68-17.76 13.98-0.01 5.06 0.79 10.11 0.87 15.18 0.21 13.37-8.01 18.78-20.34 13.64-4.07-1.7-8.19-3.45-12.46-4.5-11.78-2.9-21.1 4.7-20.89 16.91 0.11 6.72 0.58 13.44 0.89 20.16-2.1 2.01-3.8 6.07-7.17 1.36 1.31-2.06 3.63-4.07 3.74-6.19 0.22-4.57-0.98-9.19-1.09-13.8-0.4-17.61 14.19-27.34 30.48-20.47 2.72 1.15 5.37 2.45 8.08 3.59 9.15 3.86 14.71 0.41 14.73-9.22 0.01-5.27-0.38-10.54-0.29-15.81 0.24-13.16 9.41-20.65 22.14-17.97 4.51 0.95 8.87 2.55 13.3 3.86 1.3 0.27 2.6 0.54 3.89 0.8 0.74 0 1.48-0.01 2.22-0.01 1.37-0.74 2.74-1.49 4.11-2.23 0.48 0.58 0.96 1.15 1.43 1.73-0.16 0.49-0.32 0.98-0.49 1.48z"/> <path class="st6" d="m1237.8 1352.4c-0.48-0.58-0.96-1.15-1.44-1.73-0.45-4.61-0.9-9.21-1.35-13.82l0.21-0.18c5.67 5.61 6.24 9.06 2.58 15.73z"/> <path class="st6" d="m1231.4 1319.3c0.42 0.52 0.84 1.05 1.25 1.57 0.88 5.29 1.75 10.58 2.63 15.87l-0.21 0.18c-1.66-4.63-3.32-9.25-4.99-13.88l0.02-0.04 1.26-3.78 0.04 0.08z"/> <path class="st24" d="m861.41 1400.1c1.61 3.45 3.63 6.77 4.72 10.38 1 3.32 1 6.95 1.58 11.59 6.98-5.55 13.84-9.84 19.21-15.52 10.97-11.61 21.3-23.85 31.6-36.07 12.47-14.8 24.36-30.09 37.02-44.72 9.41-10.87 21.18-19.1 35.27-22.31 13.34-3.03 26.41-0.43 38.26 6.83 18.15 11.12 31.03 27.67 44.5 43.56 17.14 20.21 34.11 40.57 51.09 60.92 1.13 1.36 1.72 3.17 2.56 4.76-5.87 0.73-11.74 1.45-17.61 2.18-23.04-29.04-45.94-58.2-69.24-87.03-4.99-6.17-11.05-11.66-17.34-16.54-14.2-11.03-29.08-11.47-43.84-1.13-6.85 4.8-13.6 10.29-18.83 16.74-23.38 28.78-46.19 58.02-69.21 87.1-0.47 0.22-0.95 0.44-1.42 0.67-0.99-0.58-1.98-1.15-2.96-1.73-8.38-2.98-13.2 3.6-19.16 7.12-1.94-0.1-3.87-0.2-6.19-0.32-0.01-9.03-0.01-17.75-0.01-26.48z"/> <path class="st19" d="m862.2 1452.6c-2.04 1.04-4.09 2.07-6.14 3.11-13.4-4.61-17.61-14.36-15.47-27.66 0.22-2.46 0.43-4.93 0.65-7.39 2.45-9.76-0.43-13.13-9.97-11.5-1.39 0.24-2.75 0.88-4.01 1.55-7.65 4.07-15.54 6.79-24.37 4.68l0.01 0.01c-0.47-0.36-0.94-0.72-1.4-1.08-6.97-3.62-10.16-9.88-11.28-17.18-1.14-7.44-1.65-14.98-2.43-22.47-2.74-6.29-7.99-4.34-11.67-2.36-8.14 4.38-16.29 6.44-25.34 4.06-1.99-2.06-4.45-3.83-5.87-6.22-4.93-8.32-2.97-16.77-0.18-25.32 0.82-2.51 0.09-5.53 0.07-8.32-0.45-1.25-0.9-2.51-1.35-3.76 6.35 2.28 7.72 4.8 5.79 10.68-1.37 4.19-3.39 8.29-4.04 12.59-2.06 13.68 8.48 21.98 21.36 17.06 3.14-1.2 6.03-3.05 9.16-4.28 9.56-3.77 15.55-0.24 17.07 9.91-0.01 2.12-0.03 4.24-0.04 6.36 0.75 5.58 0.74 11.41 2.42 16.7 3.03 9.53 11.86 13.44 21.25 10.06 3.95-1.42 7.64-3.53 11.52-5.17 11.15-4.7 18.57 0.8 17.25 12.75-0.25 2.3-0.58 4.6-0.87 6.9-1.99 6.85-2.08 13.54 2.16 19.64 3.79 5.41 9.14 7.57 15.72 6.65z"/> <path class="st19" d="m861.41 1400.1v26.48c2.32 0.12 4.26 0.22 6.19 0.32l-5.88 3.84c-1.4-2.42-3.38-4.7-4.05-7.31-0.76-2.93-0.35-6.17-0.45-9.28 0.22-2.31 0.53-4.61 0.64-6.92 0.65-13.83-10.47-21.9-23.57-17.06-4.34 1.6-8.49 3.75-12.89 5.16-8.7 2.79-15.33-1.19-16.48-10.23-0.6-4.74 0.49-9.67 0.2-14.48-0.26-4.32-0.53-8.95-2.25-12.79-2.96-6.6-8.26-8.36-15.24-6.37-4.66 1.33-9.25 3.41-13.98 3.78-3.81 0.3-9.31-0.23-11.26-2.65-2.21-2.74-2.07-8.11-1.49-12.13 0.52-3.57 3.83-6.72 4.45-10.31 0.68-3.93-0.3-8.15-0.55-12.25 0.78 0.05 1.55 0.1 2.32 0.15 0.14 0.33 0.25 0.67 0.33 1.01 0.28 8.2-0.53 15.99-4.44 23.62-3.3 6.45 1.49 11.71 8.71 10.38 2-0.37 3.86-1.45 5.78-2.2 2.83-0.83 5.62-1.8 8.48-2.48 11.71-2.78 18.23 0.88 22.27 12.38-0.12 7.77-0.26 15.55-0.36 23.32-0.05 4.04 1.48 6.89 5.82 7.58 5.06-1 10.61-1 15.07-3.2 11.69-5.72 26.09-4.57 32.63 11.64z"/> <path class="st20" d="m886.76 1419.8c0.99 0.58 1.97 1.15 2.96 1.73-0.98-0.58-1.97-1.15-2.96-1.73z"/> <path class="st23" d="m1154.1 1414.2c0.23 1.66 0.47 3.33 0.7 4.99-0.23-1.66-0.47-3.32-0.7-4.99z"/> <path class="st24" d="m840.6 1428.1c-2.15 13.3 2.06 23.05 15.47 27.66-35.59 32.8-67.89 39.26-111.25 23.53-15.48-5.61-28.48-15.17-40.82-25.75-12.81-13.19-23.45-27.72-27.07-46.23-3.89-19.93 1.12-37.34 17.85-49.36 12.93-9.28 27.22-16.67 40.9-24.9 2.58-0.02 5.17-0.05 7.75-0.07l0.02-0.21c0.45 1.25 0.9 2.51 1.34 3.76-14.35 8.34-28.94 16.29-42.98 25.14-13.72 8.64-19.21 25.64-14.19 41.01 4.9 14.98 14.83 26.31 26.93 35.79 19.55 15.32 41.99 19.53 66.44 17.87 18.7-1.27 35.08-7.95 50.91-17.08 4.48-2.58 8.33-5.46 8.7-11.16z"/> <path class="st21" d="m792.76 1385.1c0.01-2.12 0.03-4.24 0.04-6.36 0.82 2.2 1.98 4.33 2.38 6.6 0.42 2.37 0.11 4.87 0.13 7.32l-0.08 0.07c-0.83-2.54-1.65-5.08-2.47-7.63z"/> <path class="st19" d="m743.43 1333c-2.58 0.02-5.17 0.05-7.75 0.07 2.59-0.02 5.17-0.05 7.75-0.07z"/> <path class="st21" d="m795.31 1392.6c0.35 0.87 0.7 1.74 1.06 2.6-0.29 0.08-0.57 0.16-0.86 0.24-0.09-0.92-0.19-1.85-0.28-2.77-0.01 0 0.08-0.07 0.08-0.07z"/> <path class="st16" d="m1245.1 924.8c0.07-0.78 0.14-1.57 0.22-2.35 0.2-0.46 0.41-0.93 0.61-1.39-0.11-0.64-0.21-1.29-0.32-1.93 14.61-3.7 29.39-5.3 44.44-3.61 0.25 0.66 0.31 1.7 0.77 1.92 10.8 5.1 20.24 12.02 28.09 21.02 9.73 11.16 13.19 24.05 10.59 38.65-3.7 20.78-15.51 36.59-31.23 49.62-6 4.98-13.43 8.23-20.21 12.27 1.87-3.47 3.73-6.94 5.61-10.4 5.68-10.46 1.63-22.87-12.44-24.06-6.73-0.56-13.36-2.21-20.04-3.37 3.17-4.61 6.84-8.98 9.37-13.92 2.27-4.42 3.28-9.48 4.85-14.26-2.03-14.34-4.45-16.9-18.5-20.66-4.12-1.1-8.04-2.97-12.06-4.49 3.17-5.39 6.56-10.68 9.41-16.24 0.97-1.91 0.59-4.51 0.84-6.8z"/> <path class="st18" d="m1278 1039c6.78-4.04 14.21-7.29 20.21-12.27 15.72-13.03 27.53-28.84 31.23-49.62 2.6-14.6-0.86-27.49-10.59-38.65-7.85-9-17.29-15.92-28.09-21.02-0.46-0.22-0.52-1.26-0.77-1.92 15.19 1.28 28.42 7.09 39.8 17.19 0.89 0.95 1.78 1.89 2.68 2.84 0.55 0.68 1.1 1.36 1.65 2.03 1.11 1.47 2.23 2.93 3.34 4.4 0.41 0.71 0.81 1.42 1.22 2.13l3.99 7.77c-0.1 0.38-0.01 0.7 0.29 0.96 1.23 9.72 2.45 19.43 3.68 29.15l-0.42 2.82c-0.19 0.74-0.38 1.48-0.56 2.21-0.14 0.79-0.28 1.59-0.41 2.38-0.41 1.33-0.81 2.66-1.22 3.99-0.22 0.42-0.45 0.84-0.67 1.26-0.14 0.43-0.28 0.86-0.42 1.29-0.28 0.25-0.38 0.56-0.3 0.93-9.99 21.1-27.96 33.61-47.63 44.31-3.13 1.7-6.14 3.63-9.21 5.46-0.92 0.42-1.88 1.27-2.75 1.18-2.11-0.22-4.18-0.88-6.26-1.37 0.41-1.43-5.38-2.87 0.01-4.29l1.32-3.18c-0.03 0.02-0.12 0.02-0.12 0.02z"/> <path class="st20" d="m1346.7 981.99c-1.23-9.72-2.45-19.43-3.68-29.15 5.88 1.57 4.54 6.13 4.35 10.3-0.3 6.28-0.46 12.56-0.67 18.85z"/> <path class="st20" d="m1342.7 951.88-3.99-7.77c5.68 0.35 3.74 4.62 3.99 7.77z"/> <path class="st20" d="m1337.5 941.97c-1.11-1.47-2.23-2.93-3.34-4.4h5.48c-0.9 1.84-1.52 3.12-2.14 4.4z"/> <path class="st20" d="m1332.5 935.54c-0.89-0.95-1.78-1.89-2.68-2.84 0.9 0.95 1.79 1.89 2.68 2.84z"/> <path class="st20" d="m1344 993.4c0.41-1.33 0.81-2.66 1.22-3.99-0.4 1.32-0.81 2.65-1.22 3.99z"/> <path class="st20" d="m1343 995.95c0.14-0.43 0.28-0.86 0.42-1.29 0.38 0.29 0.77 0.58 1.15 0.88-0.52 0.13-1.05 0.27-1.57 0.41z"/> <path class="st20" d="m1345.7 987.02c0.19-0.74 0.38-1.48 0.56-2.21-0.18 0.74-0.37 1.47-0.56 2.21z"/> <path class="st19" d="m1276.8 1042.2c-5.4 1.42 0.4 2.86-0.01 4.29-6.49 0.18-6.64-0.26-3-8.47 2.54-4.32 5.38-8.51 7.54-13.01 2.11-4.39 2.26-8.92-1.85-12.61-4.03-1.71-7.92-4.04-12.13-4.97-5.22-1.16-10.7-1.17-16.07-1.67-8.29-6.41-8.51-13.55-0.61-20.24 2.08-1.76 4.35-3.33 6.29-5.24 7.85-7.71 5.71-18.67-4.6-22.8-3.26-1.31-6.87-1.83-10.37-2.45-5.64-1-11.02-2.73-12.65-8.82-1.59-5.94 2.66-9.73 6.6-13.31 0.77-0.7 1.68-1.24 2.52-1.85-1 1.9-1.77 3.98-3.06 5.66-2.83 3.67-4.45 7.22-0.6 11.17 4.01 1.52 7.93 3.39 12.06 4.49 14.05 3.76 16.47 6.32 18.5 20.66-1.55 2.63-2.75 5.57-4.74 7.81-3.02 3.39-6.64 6.25-9.91 9.42-3.87 3.76-3.72 7.46 0.43 10.95 6.68 1.16 13.31 2.81 20.04 3.37 14.08 1.18 18.13 13.6 12.44 24.06-1.88 3.46-3.74 6.93-5.61 10.4h0.1c-0.43 1.04-0.87 2.1-1.31 3.16z"/> <path class="st20" d="m1279.5 1012.4c4.11 3.69 3.97 8.21 1.85 12.61-2.17 4.5-5 8.69-7.54 13.01-0.67-1.35-1.33-2.69-2-4.04l0.03-1.29c1.7-3.8 3.4-7.61 5.1-11.41 0.01-1.26 0.03-2.52 0.05-3.78-0.02-0.43-0.03-0.86-0.05-1.28 0.85-1.27 1.71-2.55 2.56-3.82z"/> <path class="st20" d="m1286.1 1050.7c0.33 0.78 0.84 1.46 0.68 1.73-0.29 0.49-0.99 0.73-1.52 1.08-0.15-0.53-0.51-1.1-0.4-1.58 0.07-0.41 0.68-0.71 1.24-1.23z"/> <path class="st10" d="m1271.8 1032.7-0.03 1.29c-0.41 0.01-0.82 0.01-1.23 0.01-0.12-1.07-0.23-2.13-0.35-3.2 0.54 0.64 1.08 1.27 1.61 1.9z"/> <path class="st17" d="m1213.6 932.56c-14.62 2.38-29.22 4.96-43.87 7.09-11.91 1.73-23.4-0.13-34.18-5.61-1.21-0.61-2.06-1.92-3.08-2.9 10.19 0.53 20.39 1.05 30.58 1.58 2.04-0.18 4.08-0.37 6.13-0.55 3.5-0.65 6.99-1.31 10.49-1.96 10.65-1.77 21.31-3.54 31.96-5.31l5.85-0.03 0.07-0.27c-1.32 2.65-2.63 5.31-3.95 7.96z"/> <path class="st20" d="m1131.2 929.94c-2.09-1.26-4.18-2.52-6.26-3.78 3.66-1.35 6.14-0.73 6.26 3.78z"/> <path class="st20" d="m1122.3 923.71c-0.92-1.24-1.83-2.47-2.75-3.71 0.92 1.24 1.84 2.48 2.75 3.71z"/> <path class="st23" d="m1146.1 931.69h1.86v0.46h-1.86v-0.46z"/> <path class="st19" d="m1213.6 932.56c1.31-2.65 2.63-5.31 3.94-7.96 3 1.93 2.74 4.08 0.92 6.86-2.4 3.68-4.76 7.48-6.45 11.51-4.5 10.73 1.49 21.18 12.86 22.95 4.14 0.64 8.43 0.73 12.41 1.92 8.45 2.53 10 8.45 4.15 15.28-2.73 3.18-6.05 5.85-8.86 8.97-6.02 6.68-6.42 13.02-1.5 19.79 5.22 1.57 10.35 3.72 15.69 4.59 7.42 1.2 14.74 1.91 18.14 10.07-1.81 3.82-3.49 7.7-5.46 11.43-2.47 4.67-5.19 9.21-7.79 13.81-0.11-2.59-0.22-5.18-0.33-7.77 1.88-2.44 4.29-4.65 5.5-7.38 1.49-3.38 1.96-7.2 2.87-10.82-1.84-1.52-3.47-3.88-5.56-4.42-7.98-2.03-16.1-3.47-24.18-5.13-8-9.43-7.71-17.83 0.64-26.73 3.24-3.46 6.05-7.34 9.04-11.03 4.06-3.4 0.89-5.65-1.64-7.11-2.22-1.28-5.14-1.34-7.75-1.97-5.54-1.32-11.07-2.66-16.6-3.99-10.2-10.96-6.97-21.91-0.04-32.87z"/> <path class="st10" d="m1264.9 1026.5c-3.4-8.16-10.72-8.87-18.14-10.07-5.34-0.86-10.47-3.01-15.69-4.59 1.21-1.51 2.22-4.08 3.66-4.34 5.44-1 11.02-1.26 16.54-1.8 5.37 0.5 10.85 0.51 16.07 1.67 4.2 0.93 8.1 3.26 12.13 4.97-0.85 1.27-1.71 2.54-2.56 3.82-1.12 0.31-2.25 0.62-3.37 0.93 0.11 0.39 0.22 0.78 0.33 1.17 1.03-0.27 2.06-0.55 3.09-0.82-0.02 1.26-0.03 2.52-0.05 3.78-4.01 1.77-8.01 3.53-12.01 5.28z"/> <path class="st18" d="m1234.8 947.85c-3.85-3.95-2.23-7.5 0.6-11.17 1.29-1.68 2.05-3.76 3.06-5.66l0.12 0.17c0.46-0.5 0.92-1 1.39-1.5 0 0-0.19 0.19-0.18 0.19 0.55-0.42 1.09-0.83 1.64-1.24 1.21-1.28 2.42-2.55 3.63-3.83-0.24 2.29 0.13 4.89-0.85 6.81-2.85 5.55-6.23 10.83-9.41 16.23z"/> <path class="st1" d="m1179.7 930.21c-3.5 0.65-6.99 1.31-10.49 1.96 3.49-0.66 6.99-1.31 10.49-1.96z"/> <path class="st19" d="m1217.5 924.86-5.85 0.03c1.95 0 3.9-0.02 5.85-0.03z"/> <path class="st13" d="m1245.9 921.06c-0.2 0.46-0.41 0.93-0.61 1.39 0.2-0.47 0.41-0.93 0.61-1.39z"/> <path class="st19" d="m1240 929.68c-0.46 0.5-0.92 1-1.39 1.5 0.46-0.49 0.93-0.99 1.39-1.5z"/> <path class="st19" d="m1241.4 928.63c-0.55 0.41-1.09 0.83-1.64 1.24 0.54-0.41 1.09-0.82 1.64-1.24z"/> <path class="st18" d="m1094.6 828.53c2.05 6.77 4.36 13.47 6.1 20.32 1.98 7.79-1.31 14.07-7.06 19.01-18.93 16.27-39.84 28.95-64.45 34.64-24.42 5.65-47.33 1.5-68.33-11.81-8.79-5.57-16.63-12.62-24.91-18.99 2.95 1.44 6.11 2.54 8.81 4.36 26.06 17.56 54.57 22.34 84.13 12.68 21.63-7.07 40.68-19.65 56.01-37.1 5.86-6.69 10.34-13.78 9.7-23.11z"/> <path class="st25" d="m1094.6 828.53c0.64 9.33-3.84 16.42-9.71 23.1-15.33 17.46-34.38 30.03-56.01 37.1-29.56 9.66-58.07 4.88-84.13-12.68-2.69-1.81-5.86-2.92-8.81-4.36l0.01 0.01c-0.88-0.81-1.75-1.62-2.63-2.43-0.3-0.15-0.62-0.26-0.95-0.32-0.85-0.84-1.71-1.69-2.56-2.53-0.12-0.33-0.28-0.64-0.5-0.92-0.38-0.35-0.76-0.71-1.14-1.06-9.43-7.94-17.84-16.74-22.6-28.36-2.74-6.71-0.87-14.34 3.93-17.9 6.58-4.88 13.13-4.39 18.52 2.02 4.33 5.15 7.88 10.95 12.07 16.22 14.04 17.64 31.33 30.13 54.45 32.25 15.51 1.42 29.45-3.6 42.37-12.02 13.2-8.6 23.14-20.25 31.7-33.19 3.49-5.28 7.45-9.65 14.29-8.12 6.76 1.52 11.12 5.85 11.7 13.19zm-26.64 33.33 4.83-4.08c6.72-6.46 14.38-12.16 17.46-21.55 2.4-7.33 0.34-13.77-5.16-16.5-5.53-2.74-8.6-0.75-14.37 6.4-8.04 9.95-15.83 20.5-25.56 28.59-22.78 18.95-48.55 23.67-76.03 10.49-15.35-7.36-27.17-19.08-36.73-33.08-2.14-3.13-3.63-7.08-6.48-9.25-2.82-2.14-7.58-4.21-10.4-3.21-3.17 1.12-6.62 5.44-7.2 8.84-0.63 3.66 1.11 8.38 3.23 11.75 7.97 12.7 19.21 22.21 31.66 30.35 1.33 0.85 2.66 1.71 3.99 2.56l-0.04-0.04c0.4 0.45 0.72 1.04 1.21 1.34 37.24 23.05 80.06 21.33 119.63-12.66l-0.04 0.05z"/> <path class="st18" d="m1036.1 1146.8c9.21 5.31 12.93 14.18 13.79 23.93 2.06 23.3-13.52 41.12-36.91 43.17-12.86 1.13-31.37-10.4-36.44-22.7 1.88 0.94 3.76 1.85 5.63 2.81 26.3 13.52 55.59-4.52 55.2-34.07-0.07-4.39-0.83-8.77-1.27-13.14z"/> <path class="st18" d="m1035.8 1022.9c10.87 7.01 16.75 24.79 12.8 38.72-4.59 16.2-21.74 29.08-38.48 28.03-13.12-0.82-23.19-8-31.54-17.74-0.71-0.83-0.62-2.36-0.89-3.57 2.09 0.98 4.18 1.95 6.26 2.95 19.31 9.25 41.81 0.28 50.31-19.41 4.18-9.71 3.06-19.22 1.54-28.98z"/> <path class="st24" d="m966.69 747.37c7.23 4.25 12.75 18.96 10.89 29.02-2.59 14.04-13.77 24.98-27.4 26.83-13.93 1.89-29.41-5.89-35.53-17.89-0.17-0.33-0.02-0.83-0.03-1.25 4.9 1.86 9.81 3.68 14.69 5.59 10.99 4.31 29.35-6.99 32.94-13.74 4.78-9.01 6.75-18.45 4.44-28.56z"/> <path class="st24" d="m1095.9 749.95c9.3 8.32 11.93 21.54 7.21 34.57-3.8 10.48-16.28 19.45-27.12 19.03-14.95-0.58-26.01-6.56-33.32-19.55 2.33 0.91 4.67 1.81 7 2.73 6.7 2.66 13.24 4.63 20.83 2.83 16.11-3.8 29.24-22.12 25.4-39.61z"/> <path class="st26" d="m1036.1 1146.8c0.44 4.38 1.2 8.75 1.26 13.13 0.38 29.56-28.91 47.59-55.2 34.07-1.86-0.96-3.75-1.87-5.63-2.81l-0.04-0.04c-0.42-0.4-0.84-0.81-1.25-1.21l-0.03-0.03c-0.44-0.37-0.88-0.73-1.31-1.1-6.49-7.97-11.38-16.49-11.36-27.28 0.03-17.47 8.91-30.77 24.83-36.44 15.4-5.48 32.55-0.29 42.87 13.08 1.79 2.32 3.28 4.88 4.9 7.33 0.31 0.43 0.63 0.86 0.96 1.3zm-3.4 6.11 0.02-0.22c0.11-0.3 0.05-0.56-0.18-0.78-0.12-0.43-0.23-0.86-0.35-1.29-0.11-0.42-0.21-0.84-0.32-1.27-0.62-1.07-1.43-2.08-1.85-3.23-4.6-12.6-14.61-18.34-26.99-19.36-13.47-1.11-24.76 3.82-31.85 16.15-9.07 15.25-5.64 34.23 8.02 44.39 10.44 8.63 22.19 10.11 34.25 4.78 12.24-5.4 19.71-14.85 19.96-28.91l-0.15-8.76c-0.18-0.49-0.37-1-0.56-1.5z"/> <path class="st26" d="m1035.8 1022.9c1.52 9.76 2.64 19.27-1.55 28.97-8.49 19.69-31 28.67-50.31 19.41-2.08-1-4.17-1.96-6.26-2.95l-0.06-0.05c-0.4-0.39-0.8-0.78-1.21-1.18-21.07-18.08-16.18-48.11 1.22-60.52 17.42-12.42 41.23-8.31 53.92 10.02 1.45 2.09 2.84 4.2 4.25 6.3zm-58.15 39.06c0.88 0.82 1.76 1.64 2.65 2.46 9.33 7.28 19.5 8.67 30.75 5.07 17.73-5.68 28.03-28.16 20.05-44.46-1.72-3.28-2.92-7-5.24-9.78-15.93-19.15-45.74-15.37-56.6 7.03-6.36 13.1-2.33 32.35 8.33 39.82l0.06-0.14z"/> <path class="st25" d="m1095.9 749.95c3.84 17.49-9.28 35.8-25.39 39.62-7.59 1.8-14.12-0.17-20.83-2.83-2.33-0.92-4.67-1.82-7-2.73-7.68-8.03-12.89-17.05-12.11-28.7 0.99-14.72 12.09-27.8 26-30.4 15.47-2.9 31.06 5.53 37.53 20.33 0.67 1.53 1.2 3.14 1.8 4.71zm-11.71-12.39c-9.65-10.27-23.14-12.59-35.02-6.03-12.4 6.85-17.53 20.34-13.38 35.14 4.23 11.67 14.11 19.09 26.12 19.61 11.94 0.52 23.06-6.34 27.91-17.21 4.88-10.94 2.79-22.63-5.63-31.51z"/> <path class="st25" d="m966.69 747.37c2.32 10.11 0.34 19.55-4.45 28.56-3.59 6.75-21.94 18.05-32.94 13.74-4.88-1.91-9.79-3.73-14.69-5.59-7.2-7.12-12.79-14.97-12.89-25.74-0.15-15.39 9.07-28.38 23.67-32.86 13.39-4.11 29.49 2.21 37.32 14.72 1.45 2.31 2.66 4.77 3.98 7.17zm-15.51-13.8c-10.89-7.79-24.23-7.64-34.55 0.38-10.41 8.09-13.86 21.25-8.93 34.04 4.31 11.33 15.3 18.65 27.52 18.35 12.66-0.31 23.86-8.78 27.35-20.69 3.64-12.42-0.65-24.51-11.39-32.08z"/> <path class="st7" d="m777.53 1350.9c-1.92 0.75-3.79 1.83-5.78 2.2-7.22 1.32-12.02-3.93-8.71-10.38 3.9-7.63 4.72-15.42 4.44-23.62 0.68 6.92 1.36 13.84 2.03 20.76 0.02 0.19-0.14 0.4-0.18 0.6-2 9.88-1.45 10.57 8.2 10.44z"/> <path class="st17" d="m1213.7 965.41c5.53 1.33 11.07 2.67 16.6 3.99 2.61 0.62 5.53 0.69 7.75 1.97 2.53 1.45 5.7 3.71 1.64 7.11-4.78-1.36-9.56-2.72-14.34-4.09-5.06-1.47-10.24-2.79-11.65-8.98z"/> <path class="st4" d="m813.73 1391.7c-4.34-0.69-5.87-3.55-5.82-7.58 0.1-7.77 0.24-15.55 0.36-23.32 1.56 3.46 4.01 6.81 4.5 10.42 0.93 6.74 0.71 13.64 0.96 20.48z"/> <path class="st17" d="m1230 1016.2c8.07 1.66 16.2 3.1 24.18 5.13 2.09 0.53 3.71 2.9 5.56 4.42-7.78-1.08-15.67-1.74-23.31-3.48-2.48-0.57-4.3-3.97-6.43-6.07z"/> <path class="st17" d="m1230.1 1323c1.66 4.63 3.32 9.25 4.99 13.88 0.45 4.61 0.9 9.22 1.35 13.82-1.37 0.74-2.74 1.49-4.11 2.23-0.94-7.83-1.96-15.64-2.74-23.48-0.22-2.11 0.32-4.3 0.51-6.45z"/> <path class="st18" d="m813.13 1241.9c0.84-1.69 1.68-3.39 2.52-5.08 2.53-2.54 5.05-5.08 7.58-7.61l-10.14 20.37c0.02-2.57 0.03-5.12 0.04-7.68z"/> <path class="st18" d="m933.36 869.28c0.88 0.81 1.75 1.62 2.63 2.43-0.88-0.81-1.75-1.62-2.63-2.43z"/> <path class="st17" d="m1230.1 1353c-1.3-0.27-2.6-0.54-3.89-0.8 1.3 0.26 2.6 0.53 3.89 0.8z"/> <path class="st17" d="m1231.4 1319.2-1.26 3.78c0.41-1.27 0.84-2.53 1.26-3.78z"/> <path class="st18" d="m929.85 866.43c0.85 0.84 1.71 1.69 2.56 2.53-0.85-0.84-1.7-1.68-2.56-2.53z"/> <path class="st18" d="m928.21 864.45c0.38 0.35 0.76 0.71 1.14 1.06-0.38-0.35-0.76-0.7-1.14-1.06z"/> <path class="st18" d="m1036.1 1146.8-0.96-1.29c0.32 0.44 0.64 0.86 0.96 1.29z"/> <path class="st18" d="m976.44 1067.1c0.4 0.39 0.8 0.78 1.21 1.18-0.41-0.39-0.81-0.79-1.21-1.18z"/> <path class="st18" d="m973.88 1188.8c0.44 0.37 0.88 0.73 1.31 1.1-0.43-0.37-0.87-0.74-1.31-1.1z"/> <path class="st18" d="m975.23 1189.9c0.42 0.4 0.84 0.81 1.25 1.21-0.42-0.4-0.84-0.81-1.25-1.21z"/> <path class="st16" d="m1160.4 1433.1c-0.07-1.2-0.15-2.4-0.22-3.6-0.06-1.36-0.13-2.72-0.19-4.08-0.01-0.68-0.03-1.37-0.04-2.05 2.15-9.72 4.08-10.84 13.41-7.64 3.38 1.16 6.65 2.64 10.05 3.75 7.69 2.53 14.66 1.24 20.16-4.89 7.18-8 8.67-17.88 8.71-28.18 0.03-9.99 3.46-12.53 13.02-9.43 4.19 1.36 8.13 3.51 12.33 4.79 12.39 3.78 22.41-6.09 21.06-16.04l0.12-8.43c-0.26-1.32-0.53-2.64-0.8-3.96l-2.73-11.34c11.71 4.27 23.72 8.67 31.47 18.83 13.93 18.28 12.22 38.99-3.86 55.54-24.2 24.91-53.92 35.26-88.26 31.86-11.27-1.12-21.28-6.41-30.48-13.02-1.16-0.83-2.5-1.41-3.75-2.11z"/> <path class="st16" d="m1255.3 1342c-0.43-0.64-0.87-1.28-1.3-1.93 0.43 0.64 0.86 1.29 1.3 1.93z"/> <path class="st1" d="m1207 1382.4c0.24 8.77 0.65 17.58-6.19 24.56-1.49-0.72-2.98-1.43-4.47-2.15 2.03-6.6 3.77-13 6.08-19.2 0.53-1.44 3-2.16 4.58-3.21z"/> <path class="st18" d="m1258.7 1365.7c1.35 9.95-8.66 19.83-21.06 16.04-4.21-1.28-8.15-3.43-12.33-4.79-9.56-3.1-12.99-0.56-13.02 9.43-0.04 10.29-1.53 20.18-8.71 28.18-5.51 6.14-12.47 7.42-20.16 4.89-3.39-1.11-6.67-2.6-10.05-3.75-9.33-3.2-11.26-2.08-13.41 7.64-4.02-4.36-3.16-9.38-0.58-13.62 0.96-1.57 5.3-2.28 7.57-1.61 4.77 1.41 9.2 3.98 13.76 6.1 12.72 5.91 25.62-3.64 27.66-14.76 1.24-6.74 1.91-13.61 2.37-20.45 0.48-7.17 4.7-10.05 11.5-7.24 3.48 1.44 6.84 3.2 10.36 4.55 11.77 4.52 18.93 1.68 24.6-9.53 0.25-0.49 0.99-0.72 1.5-1.08z"/> <path class="st18" d="m1258 1353.4c0.27 1.32 0.53 2.64 0.8 3.96-0.27-1.32-0.53-2.64-0.8-3.96z"/> <path class="st18" d="m1160 1425.4c0.06 1.36 0.13 2.72 0.19 4.08-0.07-1.36-0.13-2.72-0.19-4.08z"/> <path class="st16" d="m840.6 1428.1c-0.37 5.69-4.22 8.57-8.7 11.16-15.83 9.12-32.21 15.8-50.91 17.08-24.44 1.67-46.88-2.55-66.44-17.87-12.1-9.48-22.03-20.81-26.93-35.79-5.03-15.37 0.47-32.37 14.19-41.01 14.03-8.84 28.63-16.79 42.98-25.14 0.02 2.79 0.76 5.81-0.07 8.32-2.79 8.55-4.75 17.01 0.18 25.32 1.42 2.39 3.89 4.17 5.87 6.22 1.58 1.5 3.09 4.16 4.76 4.27 4.49 0.29 9.14-0.09 13.57-0.99 6.3-1.29 12.46-3.28 18.69-4.97 0.78 7.5 1.29 15.03 2.43 22.47 1.12 7.3 4.31 13.56 11.28 17.18 0.47 0.36 0.94 0.72 1.4 1.09l-0.01-0.01c3.13 1.7 6.37 4.96 9.38 4.75 5.22-0.36 10.45-2.5 15.41-4.55 6.97-2.87 10.03-1.95 13.56 5.07-0.21 2.47-0.42 4.94-0.64 7.4z"/> <path class="st17" d="m841.25 1420.7c-3.53-7.02-6.59-7.94-13.56-5.07-4.96 2.04-10.18 4.19-15.41 4.55-3 0.21-6.24-3.05-9.38-4.75 8.83 2.12 16.72-0.61 24.37-4.68 1.26-0.67 2.62-1.31 4.01-1.55 9.54-1.63 12.42 1.74 9.97 11.5z"/> <path class="st17" d="m787.8 1374.7c-6.22 1.69-12.38 3.68-18.69 4.97-4.43 0.9-9.08 1.28-13.57 0.99-1.67-0.11-3.18-2.77-4.76-4.27 9.05 2.39 17.2 0.32 25.34-4.05 3.69-1.98 8.94-3.93 11.68 2.36z"/> <path class="st17" d="m802.92 1415.4c-0.47-0.36-0.94-0.72-1.4-1.09 0.46 0.36 0.93 0.73 1.4 1.09z"/> <path class="st18" d="m1251.2 1001.2c-4.16-3.49-4.3-7.19-0.43-10.95 3.27-3.18 6.89-6.03 9.91-9.42 1.99-2.24 3.19-5.18 4.74-7.81-1.57 4.78-2.58 9.84-4.85 14.26-2.53 4.94-6.2 9.31-9.37 13.92z"/> <path class="st16" d="m1276.8 1042.2 1.32-3.18-1.32 3.18z"/> <path class="st14" d="m1277 1017.5c-1.03 0.27-2.06 0.55-3.09 0.82-0.11-0.39-0.22-0.78-0.33-1.17 1.12-0.31 2.25-0.62 3.37-0.93 0.02 0.43 0.03 0.85 0.05 1.28z"/> <path class="st27" d="m943.24 870.62c-12.45-8.14-23.69-17.64-31.66-30.35-2.12-3.37-3.86-8.09-3.23-11.75 0.58-3.4 4.03-7.72 7.2-8.84 2.82-1 7.58 1.07 10.4 3.21 2.85 2.17 4.34 6.11 6.48 9.25 9.56 14.01 21.38 25.72 36.73 33.08 27.47 13.18 53.24 8.46 76.03-10.49 9.73-8.09 17.52-18.65 25.56-28.59 5.77-7.14 8.85-9.14 14.37-6.4 5.51 2.73 7.57 9.17 5.16 16.5-3.08 9.39-10.74 15.1-17.46 21.55l-4.83 4.08 0.03-0.03c-3.86 1.8-7.8 3.45-11.58 5.42-19.73 10.27-40.03 18.69-62.93 15.8-12.2-1.54-24.27-4.21-36.35-6.6-3.41-0.68-6.66-2.18-9.98-3.3l0.04 0.04c-1.32-0.87-2.65-1.73-3.98-2.58z"/> <path class="st21" d="m947.19 873.14c3.32 1.12 6.57 2.62 9.98 3.3 12.08 2.39 24.15 5.06 36.35 6.6 22.9 2.9 43.19-5.52 62.93-15.8 3.78-1.97 7.71-3.62 11.58-5.42-39.57 33.99-82.39 35.71-119.63 12.66-0.49-0.3-0.81-0.88-1.21-1.34z"/> <path class="st21" d="m1068 861.86 4.83-4.08c-1.61 1.37-3.22 2.72-4.83 4.08z"/> <path class="st21" d="m943.24 870.62c1.33 0.85 2.66 1.71 3.99 2.56-1.33-0.85-2.66-1.71-3.99-2.56z"/> <path class="st15" d="m1033.4 1163.2c-0.26 14.05-7.72 23.5-19.96 28.91-12.07 5.33-23.82 3.84-34.25-4.78 1.25-1.35 2.5-2.71 3.75-4.07 2.45 1 4.91 2 7.36 3 10.52 4.42 20.04 1.71 27.84-5.51 7.95-7.35 11.7-16.74 7.99-27.84-0.08-0.78-0.15-1.57-0.23-2.35 2.51 4.21 5.01 8.42 7.5 12.64z"/> <path class="st9" d="m1033.4 1163.2c-2.5-4.22-5-8.43-7.5-12.65-3.33-6.45-7.65-11.95-14.38-15.22-14.19-6.91-26.71-2.74-37.54 12.6-0.94-1.67-1.88-3.33-2.81-5 7.09-12.33 18.37-17.26 31.85-16.15 12.38 1.02 22.39 6.75 26.99 19.36 0.42 1.15 1.22 2.15 1.85 3.23-0.11 0.15-0.34 0.37-0.3 0.45 0.16 0.3 0.4 0.55 0.62 0.82 0.12 0.43 0.23 0.86 0.35 1.29-0.26 0.21-0.52 0.41-0.78 0.62 0.32 0.05 0.64 0.11 0.96 0.16l-0.02 0.22c0.19 0.51 0.38 1.01 0.58 1.52 0.04 2.91 0.09 5.83 0.13 8.75z"/> <path class="st12" d="m971.17 1142.9c0.94 1.67 1.88 3.33 2.81 5-5.51 13.93-1.84 25.53 8.96 35.32-1.25 1.36-2.5 2.71-3.75 4.07-13.66-10.16-17.09-29.14-8.02-44.39z"/> <path class="st15" d="m1032.2 1150.6c-0.21-0.27-0.46-0.52-0.62-0.82-0.04-0.07 0.19-0.29 0.3-0.45 0.11 0.42 0.22 0.85 0.32 1.27z"/> <path class="st15" d="m1032.7 1152.7c-0.32-0.05-0.64-0.11-0.96-0.16 0.26-0.21 0.52-0.41 0.78-0.62 0.23 0.22 0.29 0.48 0.18 0.78z"/> <path class="st15" d="m1033.3 1154.4c-0.19-0.5-0.39-1.01-0.58-1.52 0.2 0.51 0.39 1.02 0.58 1.52z"/> <path class="st9" d="m977.62 1062.1c-10.66-7.48-14.69-26.72-8.33-39.82 10.86-22.39 40.67-26.18 56.6-7.03 2.32 2.79 3.52 6.5 5.24 9.78-2.74-1.21-5.48-2.43-8.22-3.64-0.33-0.41-0.67-0.82-1-1.23 0.22-0.3 0.44-0.59 0.67-0.89-0.56-0.17-1.12-0.33-1.68-0.5-1.94-1.59-3.8-3.31-5.84-4.75-14.75-10.42-34.62-4.72-41.44 11.99-4.26 10.45-1.99 20.09 4.38 29.03-0.13 2.35-0.26 4.71-0.38 7.06z"/> <path class="st15" d="m977.62 1062.1c0.12-2.35 0.25-4.71 0.37-7.06 1.63 0.99 3.25 1.98 4.89 2.96 6.87 7.04 15.04 7.84 23.97 5 14.59-4.19 23.41-19.29 19.23-32.95-1.06-2.89-2.12-5.77-3.17-8.66 2.74 1.21 5.48 2.43 8.22 3.64 7.97 16.3-2.32 38.79-20.05 44.46-11.25 3.6-21.42 2.21-30.75-5.07 0.7-0.56 1.4-1.11 2.1-1.67-1.58-0.26-3.16-0.52-4.74-0.79-0.02 0.01-0.07 0.14-0.07 0.14z"/> <path class="st9" d="m977.67 1061.9c1.58 0.26 3.16 0.52 4.74 0.79-0.7 0.56-1.4 1.11-2.1 1.67-0.87-0.82-1.76-1.64-2.64-2.46z"/> <path class="st28" d="m1035.8 766.67c-4.15-14.8 0.98-28.29 13.38-35.14 11.88-6.57 25.37-4.24 35.02 6.03-0.21 2.01-0.97 4.15-0.54 6.01 1.71 7.5 0.04 14.03-4.32 20.27-10.08 14.41-26.25 16.5-39.19 4.95-1.17-1.03-2.89-1.43-4.35-2.12z"/> <path class="st10" d="m1035.8 766.67c1.46 0.69 3.18 1.09 4.34 2.12 12.95 11.55 29.11 9.47 39.19-4.95 4.36-6.24 6.03-12.77 4.32-20.27-0.43-1.87 0.33-4 0.54-6.01 8.42 8.88 10.51 20.57 5.63 31.51-4.84 10.87-15.97 17.73-27.91 17.21-12-0.52-21.88-7.94-26.11-19.61z"/> <path class="st28" d="m907.7 767.98c-4.94-12.79-1.49-25.94 8.93-34.04 10.32-8.02 23.66-8.17 34.55-0.38 0.31 1.42 0.25 3.07 0.98 4.23 5.97 9.49 3.89 17.92-2.28 26.59-8.71 12.23-28.55 16.99-39.85 4.23-0.46-0.49-1.54-0.43-2.33-0.63z"/> <path class="st21" d="m907.7 767.98c0.79 0.2 1.88 0.14 2.32 0.64 11.29 12.76 31.14 8 39.85-4.23 6.17-8.67 8.25-17.1 2.28-26.59-0.73-1.16-0.67-2.81-0.98-4.23 10.74 7.58 15.03 19.67 11.39 32.08-3.49 11.9-14.69 20.38-27.35 20.69-12.21 0.3-23.2-7.03-27.51-18.36z"/> <path class="st14" d="m982.94 1183.2c-10.8-9.79-14.47-21.39-8.96-35.32 10.83-15.34 23.35-19.51 37.54-12.6 6.74 3.28 11.05 8.77 14.38 15.22 0.08 0.78 0.15 1.57 0.23 2.35-1.21 3.82-2.41 7.64-3.41 10.8-0.37-1.74-0.92-4.27-1.47-6.81l-3.12-7.5c-5.16-7.98-14.55-12.69-22.32-11.17-8.8 1.72-16.2 8.72-17.82 16.85-1.93 9.72 1.79 17.77 10.83 23.48 3.06 1.32 6.12 2.64 9.18 3.97l-7.71 3.75c-2.44-1.02-4.89-2.02-7.35-3.02z"/> <path class="st20" d="m1021.3 1156.8c0.55 2.54 1.09 5.08 1.47 6.81 0.99-3.15 2.2-6.98 3.41-10.8 3.71 11.11-0.04 20.49-7.99 27.84-7.8 7.22-17.33 9.93-27.84 5.51l7.71-3.75c16.23-1.13 23.55-9.21 23.24-25.61z"/> <path class="st14" d="m982.87 1058c-1.63-0.99-3.25-1.98-4.88-2.97-6.36-8.94-8.64-18.57-4.37-29.03 6.81-16.71 26.69-22.41 41.44-11.99 2.05 1.45 3.9 3.16 5.84 4.75 0.34 0.46 0.68 0.93 1.01 1.39 0.33 0.41 0.67 0.82 1 1.23 1.06 2.89 2.11 5.77 3.17 8.66-0.87 2.68-1.75 5.35-2.86 8.75-1-1.86-1.46-2.73-1.93-3.6-1.05-2.93-2.11-5.87-3.16-8.8-6.96-11.25-19.43-14.72-30.19-8.39-10.54 6.2-13.79 19.15-7.63 30.41 0.58 2.25-1.82 7.33 4.2 4.4 0.71 0.58 1.41 1.15 2.12 1.73-1.25 1.16-2.51 2.31-3.76 3.46z"/> <path class="st15" d="m1021.9 1020.1c-0.34-0.46-0.68-0.93-1.01-1.39 0.56 0.17 1.12 0.33 1.68 0.5-0.23 0.3-0.45 0.59-0.67 0.89z"/> <path class="st20" d="m1021.3 1035.2c0.46 0.87 0.93 1.73 1.93 3.6 1.11-3.4 1.98-6.08 2.86-8.75 4.18 13.66-4.64 28.76-19.23 32.95-3.79-1.57-7.57-3.13-11.36-4.7 16.88 0.25 24.68-6.73 25.8-23.1z"/> <path class="st1" d="m995.49 1058.3c3.79 1.57 7.57 3.13 11.36 4.7-8.93 2.84-17.1 2.04-23.97-5 1.25-1.14 2.5-2.29 3.75-3.44 0.34-0.08 0.68-0.16 1.03-0.22 2.61 1.31 5.22 2.64 7.83 3.96z"/> <path class="st29" d="m988.83 1178.5c-9.04-5.71-12.75-13.76-10.83-23.48 1.61-8.13 9.02-15.13 17.82-16.85 7.77-1.52 17.16 3.19 22.32 11.17-5.74 13.77-14.49 24.52-29.31 29.16z"/> <path class="st15" d="m988.83 1178.5c14.82-4.64 23.56-15.39 29.31-29.16l3.12 7.5c0.31 16.4-7.02 24.48-23.25 25.62l-9.18-3.96z"/> <path class="st29" d="m987.66 1054.3c-0.34 0.07-0.69 0.14-1.03 0.22-0.71-0.58-1.41-1.15-2.12-1.73-1.4-1.47-2.8-2.93-4.2-4.4-6.16-11.26-2.91-24.21 7.63-30.41 10.75-6.33 23.22-2.86 30.19 8.39-0.41 0.93-0.83 1.85-1.24 2.78-5.82 12.95-13.83 23.35-29.23 25.15z"/> <path class="st15" d="m987.66 1054.3c15.41-1.8 23.42-12.2 29.24-25.15 0.42-0.93 0.83-1.85 1.24-2.78 1.05 2.93 2.11 5.87 3.16 8.8-1.12 16.38-8.92 23.36-25.8 23.09-2.62-1.31-5.23-2.64-7.84-3.96z"/> <path class="st1" d="m980.31 1048.4c1.4 1.47 2.8 2.93 4.2 4.4-6.01 2.93-3.62-2.15-4.2-4.4z"/> </svg>